<svg width="21" height="20" viewBox="0 0 21 20" fill="none" xmlns="http://www.w3.org/2000/svg">
<path d="M5.18457 16.6665V3.33317C5.18457 2.4165 5.9352 1.6665 6.85263 1.6665H13.5249C14.4423 1.6665 15.1929 2.4165 15.1929 3.33317V16.6665C15.1929 17.5832 14.4423 18.3332 13.5249 18.3332H6.85263C5.9352 18.3332 5.18457 17.5832 5.18457 16.6665Z" fill="#E38939"/>
<path d="M13.5248 2.9165H6.85256C6.60235 2.9165 6.43555 3.08317 6.43555 3.33317V15.4165C6.43555 15.6665 6.60235 15.8332 6.85256 15.8332H13.5248C13.775 15.8332 13.9418 15.6665 13.9418 15.4165V3.33317C13.9418 3.08317 13.775 2.9165 13.5248 2.9165Z" fill="#FFF3E0"/>
<path d="M10.189 17.7085C10.5345 17.7085 10.8145 17.4287 10.8145 17.0835C10.8145 16.7383 10.5345 16.4585 10.189 16.4585C9.84353 16.4585 9.56348 16.7383 9.56348 17.0835C9.56348 17.4287 9.84353 17.7085 10.189 17.7085Z" fill="#A6642A"/>
</svg>
