<svg width="21" height="20" viewBox="0 0 21 20" fill="none" xmlns="http://www.w3.org/2000/svg">
<g clip-path="url(#clip0)">
<path d="M0.805664 9.8125C0.805664 12.5625 1.96288 16.5625 5.49707 16.5625C9.03127 16.5625 10.1885 12.5625 10.1885 9.8125C10.1885 1.3125 0.805664 1.3125 0.805664 9.8125Z" fill="#DDE8E3"/>
<path d="M10.1885 9.8125C10.1885 12.5625 11.3457 16.5625 14.8799 16.5625C18.4141 16.5625 19.5713 12.5625 19.5713 9.8125C19.5713 1.3125 10.1885 1.3125 10.1885 9.8125Z" fill="#DDE8E3"/>
<path d="M1.05566 10.0313C1.05566 12.4063 1.80629 16.0625 4.80879 16.0625C7.8113 16.0625 8.56192 12.375 8.56192 10.0313C8.53065 1.90625 1.05566 1.90625 1.05566 10.0313Z" fill="white"/>
<path d="M10.4385 10.0313C10.4385 12.4063 11.1891 16.0625 14.1916 16.0625C17.1941 16.0625 17.9447 12.375 17.9447 10.0313C17.9135 1.90625 10.4385 1.90625 10.4385 10.0313Z" fill="white"/>
<path d="M1.05566 10.0625C1.05566 12 2.43181 13.5 4.08944 13.5C5.77835 13.5 7.12322 12 7.12322 10.0625C7.12322 5.3125 1.05566 5.3125 1.05566 10.0625Z" fill="#493B30"/>
<path d="M10.4385 10.0625C10.4385 12 11.8146 13.5 13.4723 13.5C15.1612 13.5 16.506 12 16.506 10.0625C16.506 5.3125 10.4385 5.3125 10.4385 10.0625Z" fill="#493B30"/>
</g>
<defs>
<clipPath id="clip0">
<rect x="0.179688" width="20.0167" height="20" fill="white"/>
</clipPath>
</defs>
</svg>
