<svg width="21" height="20" viewBox="0 0 21 20" fill="none" xmlns="http://www.w3.org/2000/svg">
<g clip-path="url(#clip0)">
<path fill-rule="evenodd" clip-rule="evenodd" d="M19.3995 7.79785H0.982365C0.761381 7.79785 0.582031 7.97725 0.582031 8.19885V19.5991C0.582031 19.8207 0.761381 20.0003 0.982365 20.0003H19.3995C19.4522 20.0002 19.5043 19.9898 19.553 19.9696C19.6016 19.9494 19.6458 19.9198 19.683 19.8826C19.7202 19.8453 19.7497 19.8011 19.7697 19.7524C19.7898 19.7038 19.8001 19.6517 19.8001 19.5991V8.19885C19.8001 8.14624 19.7898 8.09414 19.7697 8.04552C19.7496 7.9969 19.7201 7.9527 19.6829 7.91547C19.6457 7.87823 19.6015 7.84868 19.5529 7.8285C19.5043 7.80832 19.4522 7.7979 19.3995 7.79785Z" fill="#D35400"/>
<path fill-rule="evenodd" clip-rule="evenodd" d="M1.18164 3.19465V19.5955C1.18164 19.8189 1.36099 19.9999 1.58197 19.9999H18.7965C18.8494 19.9996 18.9016 19.9889 18.9503 19.9684C18.999 19.9479 19.0432 19.9181 19.0804 19.8806C19.1175 19.843 19.1469 19.7985 19.1669 19.7497C19.1868 19.7008 19.1969 19.6484 19.1967 19.5957V0.397852C19.1969 0.345061 19.1868 0.292729 19.1669 0.243845C19.1469 0.194961 19.1175 0.150483 19.0804 0.112949C19.0432 0.0754157 18.999 0.0455621 18.9503 0.0250931C18.9016 0.00462404 18.8494 -0.00605954 18.7965 -0.00634766L4.38511 -0.00474766L1.18164 3.19465Z" fill="#ECF0F1"/>
<path opacity="0.1" d="M8.1875 14.3998L19.1961 7.7998L19.1967 9.19581L10.3949 14.3998H8.1875Z" fill="black"/>
<path fill-rule="evenodd" clip-rule="evenodd" d="M0.581055 19.5986C0.581055 19.8206 0.760204 20.0004 0.981388 20.0004H19.3967C19.6177 20.0004 19.7971 19.8206 19.7971 19.5986V8.40039L10.1891 14.2004L0.581055 8.40039V19.5986Z" fill="#F39C12"/>
<path fill-rule="evenodd" clip-rule="evenodd" d="M1.18164 3.1948L4.38451 3.1968V0L1.18164 3.1948Z" fill="#F1C40F"/>
<path d="M0.581055 8.40039L0.591463 19.2004L10.1891 14.2004L0.581055 8.40039Z" fill="#F1C40F"/>
<path d="M19.7975 8.40039L10.1895 14.2004L19.7975 19.2004V8.40039Z" fill="#E57E22"/>
<path opacity="0.3" fill-rule="evenodd" clip-rule="evenodd" d="M19.7971 19.5984V19.2002L10.1891 14.2002L19.6626 19.8966C19.7444 19.8232 19.7971 19.7174 19.7971 19.5984ZM0.581055 19.5984V19.2002L10.1891 14.2002L0.715567 19.8966C0.673363 19.8592 0.639559 19.8133 0.616376 19.7619C0.593193 19.7105 0.581155 19.6548 0.581055 19.5984Z" fill="black"/>
</g>
<defs>
<clipPath id="clip0">
<rect x="0.180664" width="20.0167" height="20" fill="white"/>
</clipPath>
</defs>
</svg>
