<svg width="25" height="26" viewBox="0 0 25 26" fill="none" xmlns="http://www.w3.org/2000/svg">
<path d="M12.5 0.896484C19.4031 0.896484 25 6.62243 25 13.6865C25 19.3373 21.418 24.132 16.4516 25.8227C15.8266 25.941 15.5969 25.5453 15.5969 25.2072C15.5969 24.9026 15.6086 23.8946 15.6141 22.8258C19.0922 23.5996 19.8258 21.3166 19.8258 21.3166C20.3945 19.8385 21.2133 19.4452 21.2133 19.4452C22.3477 18.6515 21.1273 18.6674 21.1273 18.6674C19.8727 18.7578 19.2117 19.9856 19.2117 19.9856C18.0969 21.9409 16.2875 21.3757 15.5742 21.0488C15.4625 20.2222 15.1383 19.6579 14.7805 19.3381C17.557 19.0152 20.4758 17.9176 20.4758 13.0174C20.4758 11.6209 19.9875 10.4802 19.1875 9.58412C19.3172 9.26197 19.7453 7.96138 19.0664 6.19956C19.0664 6.19956 18.0164 5.85582 15.6281 7.51054C14.6312 7.22676 13.5617 7.08527 12.4992 7.07967C11.4375 7.08447 10.3672 7.22676 9.36797 7.51054C6.98203 5.85582 5.93438 6.19956 5.93438 6.19956C5.25391 7.96138 5.68203 9.26197 5.81172 9.58412C5.01015 10.4794 4.525 11.6209 4.525 13.0174C4.525 17.9296 7.44922 19.0112 10.2328 19.3285C9.78437 19.7258 9.38516 20.5036 9.38516 21.6971C9.38516 23.4086 9.4 24.7859 9.4 25.2072C9.4 25.5477 9.175 25.9466 8.54141 25.8211C3.57734 24.128 0 19.3357 0 13.6865C0 6.62243 5.59687 0.896484 12.5 0.896484Z" fill="#1A1B6D" fill-opacity="0.5"/>
</svg>
