<svg width="25" height="25" viewBox="0 0 25 25" fill="none" xmlns="http://www.w3.org/2000/svg">
<path d="M22.6562 0H2.34375C1.05469 0 0 1.0525 0 2.3389V22.6093C0 23.8957 1.05469 24.9482 2.34375 24.9482H22.6562C23.9453 24.9482 25 23.8957 25 22.6093V2.3389C25 1.0525 23.9453 0 22.6562 0ZM9.375 20.2704H6.25V9.35559H9.375V20.2704ZM7.8125 7.79633C6.94844 7.79633 6.25 7.09933 6.25 6.23706C6.25 5.37479 6.94844 4.67779 7.8125 4.67779C8.67656 4.67779 9.375 5.37479 9.375 6.23706C9.375 7.09933 8.67656 7.79633 7.8125 7.79633ZM20.3125 20.2704H17.1875V14.0334C17.1875 13.1711 16.4891 12.4741 15.625 12.4741C14.7609 12.4741 14.0625 13.1711 14.0625 14.0334V20.2704H10.9375V9.35559H14.0625V11.2899C14.707 10.4081 15.693 9.35559 16.7969 9.35559C18.7406 9.35559 20.3125 11.1004 20.3125 13.2538V20.2704Z" fill="#1A1B6D" fill-opacity="0.5"/>
</svg>
