<svg width="240" height="174" viewBox="0 0 240 174" fill="none" xmlns="http://www.w3.org/2000/svg">
<path id="AR (Stroke)" fill-rule="evenodd" clip-rule="evenodd" d="M93.3498 15.5828C94.5179 15.5828 95.4562 15.5792 96.2114 15.574C98.3935 15.5591 100.648 15.5828 102.83 15.5828C107.386 15.5828 101.004 15.5828 109.944 15.5828H167.217C172.472 15.5828 177.528 16.28 182.383 17.6745C187.239 19.0026 191.763 20.9283 195.953 23.4516C200.21 25.9085 204.069 28.8967 207.528 32.4161C211.053 35.8691 214.046 39.7205 216.508 43.9704C219.035 48.2202 220.964 52.7689 222.295 57.6163C223.692 62.4638 224.39 67.5105 224.39 72.7564C224.39 77.6703 223.758 82.4513 222.494 87.0996C221.297 91.7479 219.534 96.1637 217.206 100.347C214.944 104.531 212.151 108.382 208.825 111.901C208.629 112.108 208.432 112.313 208.234 112.517C202.753 118.148 199.909 126.385 202.981 133.618L205.22 138.89C209.153 148.149 202.358 158.417 192.299 158.417V158.417C186.703 158.417 181.642 155.094 179.417 149.96L174.814 139.336C172.264 133.451 166.447 129.657 160.034 129.697L152.829 129.742C144.946 129.791 138.581 136.196 138.581 144.079V144.079C138.581 151.998 132.161 158.417 124.243 158.417H115.713C107.819 158.417 101.419 152.018 101.419 144.124V144.124C101.419 136.23 95.0198 129.83 87.1258 129.83H58.4397C50.5457 129.83 44.1463 136.242 44.1463 144.136V144.136C44.1463 152.017 37.7582 158.417 29.878 158.417V158.417C21.9978 158.417 15.6097 152.029 15.6097 144.149V72.7564C15.6097 64.8544 17.1064 57.4503 20.0997 50.5443C23.0931 43.5719 27.1507 37.496 32.2727 32.3165C37.4612 27.137 43.5144 23.0532 50.4324 20.065C57.4169 17.0768 64.867 15.5828 72.7828 15.5828C80.4326 15.5828 85.6576 15.5828 93.3498 15.5828ZM94.3345 1.08079e-05H167.217C173.84 1.08079e-05 180.319 0.876853 186.603 2.67158C192.72 4.35357 198.5 6.80286 203.891 10.0334C209.283 13.1599 214.183 16.9566 218.566 21.397C223.027 25.7844 226.839 30.6919 229.976 36.0929C233.191 41.5132 235.639 47.2976 237.324 53.4046C239.122 59.6778 240 66.1456 240 72.7564C240 78.9862 239.201 85.1076 237.586 91.0817C236.067 96.9452 233.834 102.539 230.898 107.832C227.986 113.2 224.401 118.127 220.179 122.595V122.595C218.169 124.722 217.475 127.823 218.619 130.518L227.635 151.745C232.117 162.297 224.373 174 212.909 174H183.331C176.954 174 171.185 170.213 168.65 164.361L161.365 147.547C160.768 146.171 159.408 145.284 157.908 145.293V145.293C155.851 145.306 154.19 146.977 154.19 149.035V159.614C154.19 167.559 147.749 174 139.804 174H100.103C92.2088 174 85.8094 167.601 85.8094 159.707V158.44C85.8094 151.245 79.9772 145.413 72.7828 145.413V145.413C65.5883 145.413 59.7561 151.245 59.7561 158.44V159.707C59.7561 167.601 53.3567 174 45.4627 174H15.9999C7.16336 174 -8.66132e-05 166.837 -8.66132e-05 158V72.7564C-8.66132e-05 62.8437 1.88772 53.3308 5.76278 44.3811C9.49115 35.7047 14.6192 27.9874 21.1639 21.3692L21.1993 21.3334L21.2349 21.2978C27.8529 14.6913 35.56 9.5101 44.2335 5.76363L44.2584 5.75288L44.2834 5.74221C53.292 1.88808 62.843 1.08079e-05 72.7828 1.08079e-05C80.2138 1.08079e-05 86.9513 2.5331e-05 94.3345 1.08079e-05ZM61.6076 46.4605C58.1486 47.9214 55.122 49.9467 52.5277 52.5365C49.9335 55.1262 47.8714 58.1808 46.3415 61.7002C44.878 65.1532 44.1463 68.8386 44.1463 72.7564V85.3432C44.1463 94.1798 51.3098 101.343 60.1463 101.343H85.4192C94.2557 101.343 101.419 94.1798 101.419 85.3432V72.7564C101.419 68.8386 100.654 65.1532 99.1243 61.7002C97.9142 58.7901 96.3176 56.1979 94.3345 53.9235C93.9192 53.4472 93.487 52.9849 93.0378 52.5365C90.4435 49.9467 87.3837 47.9214 83.8582 46.4605C80.3992 44.9332 76.7074 44.1696 72.7828 44.1696C68.8581 44.1696 65.1331 44.9332 61.6076 46.4605ZM72.7828 85.7605C79.9647 85.7605 85.8094 79.9383 85.8094 72.7564V72.7564C85.8094 70.9259 85.4655 69.396 84.8486 68.0035L84.776 67.8397L84.7072 67.6743C83.9958 65.9635 83.0891 64.6423 82 63.5551C80.9109 62.4679 79.5875 61.5627 77.8737 60.8526L77.708 60.7839L77.5439 60.7115C76.149 60.0956 74.6165 59.7523 72.7828 59.7523C70.9495 59.7523 69.3438 60.0959 67.8217 60.7553L67.7559 60.7838L67.6898 60.8117C66.0373 61.5096 64.7042 62.4184 63.5655 63.5551C62.4385 64.6802 61.4724 66.0587 60.6911 67.8348C60.0948 69.2644 59.7561 70.8569 59.7561 72.7564V72.7564C59.7561 79.9383 65.6008 85.7605 72.7828 85.7605V85.7605ZM167.217 101.343C171.142 101.343 174.833 100.613 178.292 99.1519C181.751 97.6246 184.778 95.5661 187.372 92.9763C189.967 90.3866 191.995 87.3652 193.459 83.9122C194.989 80.3928 195.754 76.6742 195.754 72.7564C195.754 68.8386 194.989 65.1532 193.459 61.7002C191.995 58.1808 189.967 55.1262 187.372 52.5365C184.778 49.9467 181.751 47.9214 178.292 46.4605C174.833 44.9332 171.142 44.1696 167.217 44.1696H154.581C145.744 44.1696 138.581 51.333 138.581 60.1696V85.3432C138.581 94.1798 145.744 101.343 154.581 101.343H167.217ZM154.19 72.7564C154.19 79.9383 160.035 85.7605 167.217 85.7605V85.7605C169.098 85.7605 170.679 85.43 172.099 84.8472C173.797 84.0814 175.171 83.119 176.335 81.9577C177.473 80.821 178.384 79.4902 179.083 77.8406L179.111 77.7746L179.139 77.7089C179.8 76.1894 180.144 74.5865 180.144 72.7564C180.144 70.9259 179.8 69.396 179.183 68.0035L179.111 67.8397L179.042 67.6743C178.33 65.9635 177.424 64.6423 176.335 63.5551C175.196 62.4184 173.863 61.5096 172.21 60.8117L172.094 60.7625L171.978 60.7115C170.583 60.0956 169.051 59.7523 167.217 59.7523V59.7523C160.035 59.7523 154.19 65.5745 154.19 72.7564V72.7564Z" fill="url(#paint0_linear)"/>
<defs>
<linearGradient id="paint0_linear" x1="-172.427" y1="704.545" x2="397.42" y2="602.992" gradientUnits="userSpaceOnUse">
<stop stop-color="#161569"/>
<stop offset="0.276042" stop-color="#2F3F80"/>
<stop offset="0.567708" stop-color="#505488"/>
<stop offset="0.9999" stop-color="#00B7D4"/>
<stop offset="1" stop-color="#F6FCFC"/>
</linearGradient>
</defs>
</svg>
