<svg width="64" height="48" viewBox="0 0 64 48" fill="none" xmlns="http://www.w3.org/2000/svg">
<g id="LOGO" filter="url(#filter0_di)">
<path fill-rule="evenodd" clip-rule="evenodd" d="M25.7816 6.58224C25.858 6.58224 25.9301 6.58218 25.9982 6.58206C26.8056 6.58064 27.6352 6.58224 28.4426 6.58224C28.4718 6.58224 28.6436 6.58224 29.6537 6.58224H43.0173C44.2435 6.58224 45.4231 6.74253 46.5561 7.0631C47.6892 7.3684 48.7446 7.81109 49.7225 8.39117C50.7158 8.95599 51.616 9.64292 52.4231 10.452C53.2457 11.2458 53.9442 12.1312 54.5185 13.1081C55.1083 14.0851 55.5584 15.1308 55.8688 16.2451C56.1947 17.3595 56.3577 18.5197 56.3577 19.7256C56.3577 20.8552 56.2103 21.9543 55.9154 23.0229C55.636 24.0915 55.2247 25.1066 54.6814 26.0683C54.1537 27.03 53.5018 27.9154 52.7258 28.7245C51.3891 30.118 50.6844 32.1443 51.4489 33.9176L51.8533 34.8557C52.7834 37.0131 51.2014 39.4178 48.8521 39.4178C47.5559 39.4178 46.3822 38.6517 45.8604 37.4652L45.0063 35.5229C44.2795 33.8702 42.6401 32.8074 40.8347 32.8185L39.6112 32.826C37.7989 32.8371 36.3355 34.3095 36.3355 36.1218C36.3355 37.9421 34.8599 39.4178 33.0396 39.4178H30.9503C29.1356 39.4178 27.6645 37.9466 27.6645 36.1319C27.6645 34.3172 26.1934 32.8461 24.3786 32.8461H17.5867C15.772 32.8461 14.3008 34.3172 14.3008 36.1319C14.3008 37.9466 12.8081 39.4178 10.9934 39.4178C9.15471 39.4178 7.64228 37.9272 7.64228 36.0885V19.7256C7.64228 17.909 7.99151 16.207 8.68996 14.6194C9.38841 13.0165 10.3352 11.6198 11.5303 10.4291C12.741 9.23839 14.1534 8.29958 15.7676 7.61265C17.3973 6.92571 19.1357 6.58224 20.9827 6.58224C22.7676 6.58224 23.9868 6.58224 25.7816 6.58224ZM26.0114 3H43.0173C44.5626 3 46.0744 3.20157 47.5407 3.61415C48.9681 4.00082 50.3167 4.56387 51.5746 5.30653C52.8327 6.02527 53.9761 6.89806 54.9987 7.91884C56.0396 8.92745 56.9291 10.0556 57.6611 11.2972C58.4112 12.5433 58.9825 13.873 59.3756 15.2769C59.7951 16.719 60 18.2059 60 19.7256C60 21.1577 59.8136 22.565 59.4368 23.9383C59.0823 25.2863 58.5613 26.5721 57.8761 27.7889C57.1967 29.0231 56.3603 30.1557 55.3752 31.1827C54.9069 31.6708 54.7458 32.3884 55.0135 33.0095L56.0839 35.4923C57.6145 39.0427 55.0111 43 51.1449 43H47.9206C45.7363 43 43.7584 41.7091 42.8791 39.7096L41.6538 36.9235C41.5133 36.604 41.1964 36.3986 40.8475 36.4007C40.3663 36.4037 39.9778 36.7946 39.9778 37.2758V39.6929C39.9778 41.5194 38.4972 43 36.6707 43H27.3081C25.4933 43 24.0222 41.5289 24.0222 39.7142V39.4679C24.0222 37.7892 22.6614 36.4283 20.9827 36.4283C19.304 36.4283 17.9431 37.7892 17.9431 39.4679V39.7142C17.9431 41.5289 16.472 43 14.6573 43H10C6.68629 43 4 40.3137 4 37V19.7256C4 17.4468 4.44049 15.2599 5.34467 13.2025C6.21462 11.208 7.41117 9.43388 8.93827 7.91245L8.94653 7.90422L8.95483 7.89605C10.499 6.37731 12.2974 5.18623 14.3212 4.32497L14.327 4.3225L14.3328 4.32005C16.4348 3.43404 18.6634 3 20.9827 3C22.7166 3 24.2887 3 26.0114 3ZM18.3751 13.6806C17.568 14.0164 16.8618 14.482 16.2565 15.0773C15.6512 15.6727 15.17 16.3749 14.813 17.1839C14.4716 17.9777 14.3008 18.825 14.3008 19.7256V20.2973C14.3008 23.611 16.9871 26.2973 20.3008 26.2973H21.6645C24.9782 26.2973 27.6645 23.611 27.6645 20.2973V19.7256C27.6645 18.825 27.486 17.9777 27.129 17.1839C26.8467 16.515 26.4741 15.9191 26.0114 15.3962C25.9145 15.2867 25.8136 15.1804 25.7088 15.0773C25.1035 14.482 24.3895 14.0164 23.5669 13.6806C22.7598 13.3295 21.8984 13.1539 20.9827 13.1539C20.0669 13.1539 19.1977 13.3295 18.3751 13.6806ZM21.0328 22.715C22.6838 22.715 24.0222 21.3766 24.0222 19.7256C24.0222 19.3048 23.942 18.9531 23.798 18.633L23.7811 18.5953L23.765 18.5573C23.599 18.164 23.3875 17.8603 23.1334 17.6104C22.8792 17.3604 22.5704 17.1524 22.1706 16.9891L22.1319 16.9733L22.0936 16.9567C21.7681 16.8151 21.4105 16.7362 20.9827 16.7362C20.5549 16.7362 20.1802 16.8151 19.8251 16.9667L19.8097 16.9733L19.7943 16.9797C19.4087 17.1401 19.0977 17.3491 18.832 17.6104C18.569 17.869 18.3436 18.1859 18.1613 18.5942C18.0221 18.9229 17.9431 19.2889 17.9431 19.7256C17.9431 21.3766 19.2815 22.715 20.9326 22.715H21.0328ZM43.0173 26.2973C43.9331 26.2973 44.7945 26.1294 45.6016 25.7935C46.4087 25.4424 47.1149 24.9692 47.7202 24.3739C48.3256 23.7785 48.7989 23.084 49.1404 22.2902C49.4974 21.4811 49.6759 20.6263 49.6759 19.7256C49.6759 18.825 49.4974 17.9777 49.1404 17.1839C48.7989 16.3749 48.3256 15.6727 47.7202 15.0773C47.1149 14.482 46.4087 14.0164 45.6016 13.6806C44.7945 13.3295 43.9331 13.1539 43.0173 13.1539H42.3355C39.0218 13.1539 36.3355 15.8402 36.3355 19.1539V20.2973C36.3355 23.611 39.0218 26.2973 42.3355 26.2973H43.0173ZM39.9778 19.7256C39.9778 21.3766 41.3162 22.715 42.9672 22.715H43.0173C43.4563 22.715 43.8251 22.6391 44.1563 22.5051C44.5526 22.3291 44.8733 22.1078 45.1447 21.8408C45.4104 21.5795 45.6229 21.2736 45.786 20.8944L45.7925 20.8792L45.7992 20.8641C45.9533 20.5148 46.0336 20.1463 46.0336 19.7256C46.0336 19.3048 45.9534 18.9531 45.8094 18.633L45.7925 18.5953L45.7764 18.5573C45.6104 18.164 45.3989 17.8603 45.1447 17.6104C44.8791 17.3491 44.568 17.1401 44.1824 16.9797L44.1553 16.9684L44.1283 16.9567C43.8028 16.8151 43.4452 16.7362 43.0173 16.7362H42.9672C41.3162 16.7362 39.9778 18.0746 39.9778 19.7256Z" fill="url(#paint0_linear)"/>
</g>
<defs>
<filter id="filter0_di" x="0" y="0" width="64" height="48" filterUnits="userSpaceOnUse" color-interpolation-filters="sRGB">
<feFlood flood-opacity="0" result="BackgroundImageFix"/>
<feColorMatrix in="SourceAlpha" type="matrix" values="0 0 0 0 0 0 0 0 0 0 0 0 0 0 0 0 0 0 127 0"/>
<feOffset dy="1"/>
<feGaussianBlur stdDeviation="2"/>
<feColorMatrix type="matrix" values="0 0 0 0 0 0 0 0 0 0 0 0 0 0 0 0 0 0 0.25 0"/>
<feBlend mode="normal" in2="BackgroundImageFix" result="effect1_dropShadow"/>
<feBlend mode="normal" in="SourceGraphic" in2="effect1_dropShadow" result="shape"/>
<feColorMatrix in="SourceAlpha" type="matrix" values="0 0 0 0 0 0 0 0 0 0 0 0 0 0 0 0 0 0 127 0" result="hardAlpha"/>
<feOffset dy="2"/>
<feGaussianBlur stdDeviation="2"/>
<feComposite in2="hardAlpha" operator="arithmetic" k2="-1" k3="1"/>
<feColorMatrix type="matrix" values="0 0 0 0 0 0 0 0 0 0 0 0 0 0 0 0 0 0 0.25 0"/>
<feBlend mode="normal" in2="shape" result="effect2_innerShadow"/>
</filter>
<linearGradient id="paint0_linear" x1="-36.233" y1="164.964" x2="96.6078" y2="140.936" gradientUnits="userSpaceOnUse">
<stop stop-color="#161569"/>
<stop offset="0.276042" stop-color="#2F3F80"/>
<stop offset="0.567708" stop-color="#505488"/>
<stop offset="0.9999" stop-color="#00B7D4"/>
<stop offset="1" stop-color="#F6FCFC"/>
</linearGradient>
</defs>
</svg>
