<svg width="41" height="29" viewBox="0 0 41 29" fill="none" xmlns="http://www.w3.org/2000/svg">
<path id="LOGO" fill-rule="evenodd" clip-rule="evenodd" d="M15.9473 2.59713C16.1263 2.59713 16.2738 2.59664 16.3954 2.59592C16.7955 2.59355 17.2065 2.59713 17.6067 2.59713C18.3072 2.59713 17.2821 2.59713 18.7822 2.59713H28.5663C29.464 2.59713 30.3276 2.71333 31.1572 2.94574C31.9867 3.16709 32.7595 3.48804 33.4754 3.9086C34.2026 4.31809 34.8617 4.81612 35.4526 5.40269C36.0549 5.97818 36.5663 6.62009 36.9867 7.32839C37.4186 8.0367 37.7481 8.79481 37.9754 9.60272C38.214 10.4106 38.3333 11.2517 38.3333 12.1261C38.3333 12.945 38.2254 13.7419 38.0095 14.5166C37.8049 15.2913 37.5038 16.0273 37.1061 16.7245C36.7197 17.4218 36.2424 18.0637 35.6742 18.6502C34.6963 19.6598 34.1826 21.1364 34.7436 22.4251L35.0201 23.0601C35.7071 24.6381 34.5506 26.4029 32.8296 26.4029C31.8852 26.4029 31.0294 25.8466 30.6461 24.9835L29.9426 23.3994C29.4586 22.3096 28.3751 21.6099 27.1827 21.6171L26.0492 21.624C24.7352 21.632 23.6742 22.6994 23.6742 24.0134C23.6742 25.3331 22.6044 26.4029 21.2847 26.4029H19.708C18.3924 26.4029 17.3258 25.3363 17.3258 24.0206C17.3258 22.705 16.2592 21.6384 14.9436 21.6384H9.92391C8.60824 21.6384 7.54168 22.705 7.54168 24.0206C7.54168 25.3363 6.47512 26.4029 5.15944 26.4029H5.10418C3.75798 26.4029 2.66667 25.3116 2.66667 23.9654V12.1261C2.66667 10.8091 2.92235 9.57505 3.43372 8.42406C3.94508 7.26199 4.63827 6.24933 5.51327 5.38608C6.39963 4.52283 7.43372 3.8422 8.61555 3.34417C9.80873 2.84614 11.0815 2.59713 12.4337 2.59713C13.7406 2.59713 14.6332 2.59713 15.9473 2.59713ZM16.1155 0H28.5663C29.6976 0 30.8045 0.14614 31.878 0.445262C32.9231 0.725593 33.9104 1.13381 34.8314 1.67223C35.7525 2.19332 36.5896 2.82609 37.3383 3.56616C38.1004 4.2974 38.7517 5.11531 39.2876 6.01548C39.8368 6.91887 40.255 7.88293 40.5428 8.90077C40.85 9.94629 41 11.0243 41 12.1261C41 13.1644 40.8635 14.1846 40.5876 15.1803C40.3281 16.1575 39.9467 17.0898 39.445 17.972C38.9476 18.8667 38.3352 19.6879 37.614 20.4324C37.2716 20.7858 37.1539 21.3084 37.3503 21.7595L38.6751 24.8025C39.5378 26.784 38.0856 29 35.9245 29H31.4747C30.2888 29 29.2142 28.3014 28.7329 27.2176L27.569 24.5967C27.4654 24.3636 27.2337 24.214 26.9786 24.2155C26.6258 24.2177 26.3409 24.5043 26.3409 24.8572V26.6024C26.3409 27.9266 25.2675 29 23.9433 29H17.0414C15.7257 29 14.6591 27.9334 14.6591 26.6178V26.4609C14.6591 25.2319 13.6628 24.2355 12.4337 24.2355C11.2047 24.2355 10.2084 25.2319 10.2084 26.4609V26.6178C10.2084 27.9334 9.14179 29 7.82612 29H3C1.34315 29 0 27.6569 0 26V12.1261C0 10.474 0.3225 8.88846 0.984489 7.39685C1.62142 5.95078 2.49747 4.66456 3.61552 3.56152L3.62156 3.55556L3.62765 3.54964C4.75822 2.44855 6.07485 1.58502 7.55658 0.960604L7.56083 0.958811L7.56509 0.957033C9.10406 0.314678 10.7357 0 12.4337 0C13.7032 0 14.8542 2.42052e-06 16.1155 0ZM10.5246 7.74342C9.93373 7.9869 9.41668 8.32445 8.9735 8.75607C8.53032 9.1877 8.17805 9.69679 7.91668 10.2834C7.66668 10.8589 7.54168 11.4731 7.54168 12.1261V13.8905C7.54168 15.5474 8.88483 16.8905 10.5417 16.8905H14.3258C15.9826 16.8905 17.3258 15.5474 17.3258 13.8905V12.1261C17.3258 11.4731 17.1951 10.8589 16.9337 10.2834C16.727 9.79835 16.4543 9.36631 16.1155 8.98724C16.0445 8.90786 15.9707 8.83081 15.894 8.75607C15.4508 8.32445 14.9281 7.9869 14.3258 7.74342C13.7349 7.48887 13.1042 7.3616 12.4337 7.3616C11.7633 7.3616 11.1269 7.48887 10.5246 7.74342ZM12.4918 14.2934C13.6888 14.2934 14.6591 13.3231 14.6591 12.1261C14.6591 11.821 14.6004 11.566 14.495 11.3339L14.4826 11.3066L14.4708 11.279C14.3493 10.9939 14.1944 10.7737 14.0083 10.5925C13.8223 10.4113 13.5962 10.2605 13.3034 10.1421L13.2751 10.1307L13.2471 10.1186C13.0088 10.0159 12.747 9.95872 12.4337 9.95872C12.1206 9.95872 11.8462 10.016 11.5862 10.1259L11.575 10.1306L11.5637 10.1353C11.2814 10.2516 11.0536 10.4031 10.8591 10.5925C10.6666 10.78 10.5016 11.0098 10.3681 11.3058C10.2662 11.5441 10.2084 11.8095 10.2084 12.1261C10.2084 13.3231 11.1787 14.2934 12.3757 14.2934H12.4918ZM28.5663 16.8905C29.2367 16.8905 29.8674 16.7688 30.4583 16.5253C31.0492 16.2708 31.5663 15.9277 32.0095 15.4961C32.4526 15.0644 32.7992 14.5609 33.0492 13.9854C33.3106 13.3988 33.4413 12.779 33.4413 12.1261C33.4413 11.4731 33.3106 10.8589 33.0492 10.2834C32.7992 9.69679 32.4526 9.1877 32.0095 8.75607C31.5663 8.32445 31.0492 7.9869 30.4583 7.74342C29.8674 7.48887 29.2367 7.3616 28.5663 7.3616H26.6742C25.0174 7.3616 23.6742 8.70474 23.6742 10.3616V13.8905C23.6742 15.5474 25.0174 16.8905 26.6742 16.8905H28.5663ZM26.3409 12.1261C26.3409 13.3231 27.3112 14.2934 28.5082 14.2934H28.5663C28.8877 14.2934 29.1577 14.2383 29.4002 14.1412C29.6903 14.0136 29.9251 13.8532 30.1238 13.6596C30.3184 13.4702 30.4739 13.2484 30.5933 12.9734L30.5981 12.9624L30.603 12.9515C30.7158 12.6982 30.7746 12.4311 30.7746 12.1261C30.7746 11.821 30.7159 11.566 30.6105 11.3339L30.5981 11.3066L30.5863 11.279C30.4648 10.9939 30.3099 10.7737 30.1238 10.5925C29.9293 10.4031 29.7016 10.2516 29.4193 10.1353L29.3994 10.1271L29.3796 10.1186C29.1413 10.0159 28.8795 9.95872 28.5663 9.95872H28.5082C27.3112 9.95872 26.3409 10.9291 26.3409 12.1261Z" fill="#F6FCFC"/>
</svg>
