<svg width="286" height="233" viewBox="0 0 286 233" fill="none" xmlns="http://www.w3.org/2000/svg">
<g filter="url(#filter0_i)">
<path fill-rule="evenodd" clip-rule="evenodd" d="M70.3911 101.76C66.5251 101.76 63.3911 98.6256 63.3911 94.7596V90.2754C63.3911 86.4094 60.2571 83.2754 56.3911 83.2754H33.5627C29.6967 83.2754 26.5627 86.4094 26.5627 90.2754V94.7596C26.5627 98.6256 23.4287 101.76 19.5627 101.76H15.2126C11.3466 101.76 8.21261 98.6256 8.21261 94.7596V46.3715C8.21261 41.262 9.17503 36.4746 11.0999 32.0092C13.0247 27.5009 15.6339 23.5722 18.9275 20.2231C22.2639 16.8741 26.1563 14.2335 30.6048 12.3013C35.0961 10.3692 39.8868 9.4031 44.9769 9.4031C50.067 9.4031 54.8363 10.3692 59.2848 12.3013C63.776 14.2335 67.6899 16.8741 71.0262 20.2231C71.0752 20.2722 71.1239 20.3214 71.1725 20.3708C74.4396 23.6875 77.0214 27.567 78.9181 32.0092V32.0092C79.0194 32.2442 79.3851 32.1729 79.3851 31.917V13.1616C79.3851 11.0858 81.0679 9.4031 83.1436 9.4031H95.0607C97.5511 9.4031 99.8539 10.7262 101.108 12.8776L121.516 47.8848C125.115 54.0584 134.564 51.5054 134.564 44.3593V16.4031C134.564 12.5371 137.698 9.4031 141.564 9.4031H220.697C224.563 9.4031 227.697 12.5371 227.697 16.4031V39.3715C227.697 43.2375 230.831 46.3715 234.697 46.3715H257.461C261.327 46.3715 264.461 43.2375 264.461 39.3715V16.4031C264.461 12.5371 267.595 9.4031 271.461 9.4031H278.083C280.73 9.4031 282.876 11.5489 282.876 14.1958V31.824C282.876 31.9386 283.028 31.9794 283.086 31.8804V31.8804C285.182 28.3596 287.684 25.1394 290.593 22.2197C290.757 22.0549 290.922 21.8915 291.088 21.7294C293.865 19.0202 296.908 16.6933 300.217 14.7487C303.767 12.6878 307.553 11.0991 311.574 9.98275C315.637 8.82346 319.85 8.24382 324.213 8.24382C328.576 8.24382 332.789 8.82346 336.853 9.98275C340.917 11.0991 344.702 12.6878 348.21 14.7487C351.494 16.6784 354.515 18.9845 357.274 21.667C357.462 21.8495 357.648 22.0337 357.834 22.2197C360.742 25.1394 363.223 28.3596 365.276 31.8804V31.8804C365.334 31.9794 365.487 31.9386 365.487 31.824V14.1924C365.487 11.5473 367.631 9.4031 370.276 9.4031H381.162C383.653 9.4031 385.956 10.7262 387.21 12.8776L407.618 47.8848C411.217 54.0584 420.665 51.5054 420.665 44.3593V16.4031C420.665 12.5371 423.799 9.4031 427.665 9.4031H444.609C448.475 9.4031 451.609 12.5371 451.609 16.4031V37.0972C451.609 39.6304 452.079 42.0349 453.02 44.3105C454.004 46.5432 455.33 48.4968 456.998 50.1714C458.667 51.8459 460.613 53.1769 462.837 54.1645C465.104 55.1091 467.499 55.5814 470.023 55.5814C472.547 55.5814 474.921 55.1091 477.145 54.1645C479.412 53.1769 481.38 51.8459 483.048 50.1714C484.716 48.4968 486.021 46.5432 486.962 44.3105C487.945 42.0349 488.437 39.6304 488.437 37.0972V16.4031C488.437 12.5371 491.571 9.4031 495.437 9.4031H499.787C503.653 9.4031 506.787 12.5371 506.787 16.4031V37.0972C506.787 41.3479 506.103 45.4054 504.734 49.2697C503.408 53.091 501.526 56.5904 499.088 59.7677C496.65 62.902 493.741 65.6071 490.362 67.8827C488.469 69.1576 486.468 70.2371 484.36 71.1212C481.406 72.3602 479.198 75.085 479.198 78.2883V94.7596C479.198 98.6256 476.064 101.76 472.198 101.76H467.848C463.982 101.76 460.848 98.6256 460.848 94.7596V78.2883C460.848 75.085 458.641 72.3584 455.684 71.1257C453.562 70.2408 451.54 69.1598 449.62 67.8827C448.817 67.3423 448.041 66.7777 447.292 66.1889C444.886 64.2981 442.753 62.1577 440.894 59.7677V59.7677C440.331 59.0336 439.08 59.4181 439.08 60.3434V94.7596C439.08 98.6256 435.946 101.76 432.08 101.76H423.402C420.913 101.76 418.611 100.438 417.356 98.2879L396.947 63.3159C393.346 57.1454 383.901 59.6997 383.901 66.8442V94.7596C383.901 98.6256 380.767 101.76 376.901 101.76H370.079C367.543 101.76 365.487 99.7035 365.487 97.1671V80.111C365.487 79.9962 365.334 79.9558 365.276 80.0552V80.0552C363.223 83.576 360.742 86.7962 357.834 89.7159C357.648 89.9019 357.462 90.0862 357.274 90.2689C354.515 92.9539 351.494 95.2814 348.21 97.2513C344.702 99.3122 340.917 100.901 336.853 102.017C332.789 103.177 328.576 103.756 324.213 103.756C319.85 103.756 315.637 103.177 311.574 102.017C307.553 100.901 303.767 99.3122 300.217 97.2513C296.908 95.2661 293.865 92.9178 291.088 90.2064C290.922 90.0442 290.757 89.8807 290.593 89.7159C287.684 86.7962 285.182 83.576 283.086 80.0552V80.0552C283.029 79.9557 282.876 79.9962 282.876 80.111V97.1639C282.876 99.702 280.818 101.76 278.28 101.76H271.461C267.595 101.76 264.461 98.6256 264.461 94.7596V71.8557C264.461 67.9897 261.327 64.8557 257.461 64.8557H234.697C230.831 64.8557 227.697 67.9897 227.697 71.8557V94.7596C227.697 98.6256 224.563 101.76 220.697 101.76H216.283C212.417 101.76 209.283 98.6256 209.283 94.7596V34.8873C209.283 31.0213 206.149 27.8873 202.283 27.8873H197.337C193.471 27.8873 190.337 31.0213 190.337 34.8873V94.7596C190.337 98.6256 187.203 101.76 183.337 101.76H178.987C175.121 101.76 171.987 98.6256 171.987 94.7596V34.8873C171.987 31.0213 168.853 27.8873 164.987 27.8873H159.978C156.112 27.8873 152.978 31.0213 152.978 34.8873V94.7596C152.978 98.6256 149.844 101.76 145.978 101.76H137.3C134.811 101.76 132.509 100.438 131.254 98.2879L110.845 63.3159C107.244 57.1454 97.7994 59.6997 97.7994 66.8442V94.7596C97.7994 98.6256 94.6653 101.76 90.7994 101.76H70.3911ZM62.1785 110.003C58.3125 110.003 55.1785 106.869 55.1785 103.003V98.5193C55.1785 94.6533 52.0445 91.5193 48.1785 91.5193H41.7753C37.9093 91.5193 34.7753 94.6533 34.7753 98.5193V103.003C34.7753 106.869 31.6413 110.003 27.7753 110.003H7C3.13401 110.003 0 106.869 0 103.003V46.3715C0 40.1984 1.16819 34.2952 3.55691 28.7486C5.86844 23.3388 9.04082 18.5418 13.083 14.4316L13.1016 14.4127L13.1203 14.3939C17.2088 10.2898 21.9713 7.0687 27.3435 4.73539L27.3566 4.7297L27.3697 4.72406C32.9259 2.33379 38.8219 1.15929 44.9769 1.15929C51.1265 1.15929 57.0071 2.33186 62.5326 4.72953C63.8801 5.30966 65.189 5.94501 66.4584 6.63563C68.5037 7.74834 71.1725 6.34934 71.1725 4.02101V4.02101C71.1725 2.44053 72.4538 1.15929 74.0343 1.15929H99.7703C102.261 1.15929 104.563 2.48238 105.818 4.63383L113.304 17.4749C116.903 23.6485 126.351 21.0955 126.351 13.9494V8.15929C126.351 4.29329 129.485 1.15929 133.351 1.15929H228.91C232.776 1.15929 235.91 4.29329 235.91 8.15928V31.1277C235.91 34.9937 239.044 38.1277 242.91 38.1277H249.249C253.115 38.1277 256.249 34.9937 256.249 31.1277V8.15929C256.249 4.29329 259.383 1.15929 263.249 1.15929H287.818C289.624 1.15929 291.088 2.62337 291.088 4.42941V4.95667C291.088 7.42672 293.939 8.88552 296.068 7.63417V7.63417L296.087 7.6232L296.106 7.61233C300.262 5.19965 304.685 3.34451 309.356 2.0451C314.165 0.675965 319.126 0 324.213 0C329.297 0 334.254 0.674914 339.059 2.04187C343.777 3.3414 348.219 5.20177 352.358 7.63417V7.63417C354.462 8.87002 357.274 7.4284 357.274 4.98894V4.41737C357.274 2.61798 358.733 1.15929 360.532 1.15929H385.872C388.362 1.15929 390.665 2.48238 391.919 4.63383L399.405 17.4749C403.004 23.6485 412.453 21.0956 412.453 13.9494V8.15929C412.453 4.29329 415.587 1.15929 419.453 1.15929H452.821C456.687 1.15929 459.821 4.2933 459.821 8.15929V37.0972C459.821 38.543 460.078 39.8436 460.57 41.0641C461.152 42.3567 461.896 43.4295 462.806 44.3421C463.715 45.2547 464.783 46.0022 466.071 46.5858C467.287 47.0797 468.583 47.3376 470.023 47.3376C471.483 47.3376 472.753 47.0728 473.911 46.5867C475.26 45.9941 476.344 45.2416 477.241 44.3421C478.143 43.4363 478.859 42.377 479.398 41.0984L479.413 41.0635L479.428 41.0287C479.954 39.8111 480.225 38.526 480.225 37.0972V8.15929C480.225 4.29329 483.359 1.15929 487.225 1.15929H508C511.866 1.15929 515 4.2933 515 8.15929V37.0972C515 42.2465 514.169 47.2335 512.48 52.0101C510.867 56.6481 508.569 60.9219 505.594 64.7983L505.578 64.8198L505.561 64.8412C502.573 68.6821 499.019 71.9801 494.938 74.7286C493.858 75.4559 492.75 76.1309 491.617 76.7537C489.139 78.1151 487.411 80.6183 487.411 83.4456V103.003C487.411 106.869 484.277 110.003 480.411 110.003H459.635C455.769 110.003 452.635 106.869 452.635 103.003V80.4366C452.635 79.4345 452.029 78.5372 451.118 78.1195V78.1195C449.381 77.3224 447.292 78.5331 447.292 80.445V103.003C447.292 106.869 444.158 110.003 440.292 110.003H418.695C416.206 110.003 413.904 108.682 412.649 106.532L405.159 93.6981C401.558 87.5275 392.114 90.0819 392.114 97.2263V103.003C392.114 106.869 388.98 110.003 385.114 110.003H360.255C358.609 110.003 357.274 108.669 357.274 107.022V106.918C357.274 104.507 354.49 103.088 352.422 104.328V104.328L352.39 104.347L352.358 104.366C348.219 106.798 343.777 108.659 339.059 109.958C334.254 111.325 329.297 112 324.213 112C319.126 112 314.165 111.324 309.357 109.955C304.685 108.656 300.262 106.8 296.106 104.388L296.055 104.358L296.004 104.328V104.328C293.91 103.072 291.088 104.548 291.088 106.99V106.99C291.088 108.643 289.748 110.003 288.095 110.003H263.249C259.383 110.003 256.249 106.869 256.249 103.003V80.0995C256.249 76.2335 253.115 73.0995 249.249 73.0995H242.91C239.044 73.0995 235.91 76.2335 235.91 80.0995V103.003C235.91 106.869 232.776 110.003 228.91 110.003H208.07C204.204 110.003 201.07 106.869 201.07 103.003V37.3912C201.07 36.6953 200.506 36.1311 199.81 36.1311V36.1311C199.114 36.1311 198.55 36.6953 198.55 37.3912V103.003C198.55 106.869 195.416 110.003 191.55 110.003H170.775C166.909 110.003 163.775 106.869 163.775 103.003V37.4233C163.775 36.7097 163.196 36.1311 162.483 36.1311V36.1311C161.769 36.1311 161.19 36.7097 161.19 37.4233V103.003C161.19 106.869 158.056 110.003 154.19 110.003H132.593C130.104 110.003 127.802 108.682 126.547 106.532L119.058 93.698C115.457 87.5275 106.012 90.0818 106.012 97.2263V103.003C106.012 106.869 102.878 110.003 99.012 110.003H62.1785ZM303.489 35.2294C306.141 32.5674 309.242 30.4635 312.793 28.9178C316.343 27.3721 320.15 26.5992 324.213 26.5992C328.234 26.5992 332.02 27.3721 335.57 28.9178C339.163 30.4635 342.264 32.5674 344.873 35.2294C347.525 37.8486 349.621 40.9615 351.161 44.5681C352.701 48.1319 353.471 51.9318 353.471 55.9678C353.471 60.0038 352.701 63.8037 351.161 67.3675C349.621 70.8883 347.525 73.9797 344.873 76.6417C342.264 79.3038 339.163 81.4077 335.57 82.9534C332.02 84.4991 328.234 85.272 324.213 85.272C320.15 85.272 316.343 84.4991 312.793 82.9534C309.242 81.4077 306.141 79.3038 303.489 76.6417C300.837 73.9797 298.741 70.8883 297.202 67.3675C295.662 63.8037 294.892 60.0038 294.892 55.9678C294.892 51.9318 295.662 48.1319 297.202 44.5681C298.741 40.9615 300.837 37.8486 303.489 35.2294ZM304.73 64.0738C305.868 66.6684 307.387 68.8954 309.296 70.8125C311.195 72.7181 313.427 74.2438 316.061 75.3904C318.528 76.4647 321.217 77.0282 324.213 77.0282C327.155 77.0282 329.823 76.4695 332.302 75.3904L332.318 75.3832L332.335 75.3762C334.997 74.2307 337.196 72.7201 339.019 70.8601L339.042 70.8362L339.066 70.8125C340.976 68.8954 342.495 66.6684 343.632 64.0738C344.704 61.5896 345.258 58.915 345.258 55.9678C345.258 53.0153 344.702 50.3364 343.626 47.8485L343.619 47.832L343.612 47.8155C342.471 45.1428 340.966 42.9359 339.113 41.1059L339.066 41.0589L339.019 41.0111C337.196 39.1511 334.997 37.6405 332.335 36.495L332.318 36.488L332.302 36.4808C329.823 35.4017 327.155 34.843 324.213 34.843C321.217 34.843 318.528 35.4065 316.061 36.4808C313.427 37.6274 311.195 39.1531 309.296 41.0587L309.273 41.0824L309.249 41.1059C307.396 42.9359 305.891 45.1428 304.75 47.8155L304.743 47.832L304.736 47.8485C303.661 50.3364 303.104 53.0153 303.104 55.9678C303.104 58.915 303.659 61.5896 304.73 64.0738ZM54.3665 42.4706L54.3303 42.383C53.7849 41.0642 53.0707 40.0062 52.1944 39.1266C51.3181 38.2469 50.264 37.53 48.9502 36.9825L48.863 36.9462L48.7767 36.9079C47.6384 36.4025 46.4005 36.1311 44.9769 36.1311C43.5535 36.1311 42.2732 36.4026 41.0602 36.931L41.0256 36.9461L40.9908 36.9609C39.717 37.5019 38.6618 38.2207 37.7594 39.1266C36.8634 40.026 36.1139 41.1142 35.5236 42.4685C35.0391 43.6303 34.7753 44.9055 34.7753 46.3715V49.6118C34.7753 53.4778 37.9093 56.6118 41.7753 56.6118H48.1785C52.0445 56.6118 55.1785 53.4778 55.1785 49.6118V46.3715C55.1785 44.9425 54.9081 43.6998 54.4047 42.5572L54.3665 42.4706ZM63.3911 57.8557C63.3911 61.7217 60.2571 64.8557 56.3911 64.8557H33.5627C29.6967 64.8557 26.5627 61.7217 26.5627 57.8557V46.3715C26.5627 43.8382 27.0332 41.4552 27.9742 39.2225C28.958 36.9469 30.284 34.9718 31.9522 33.2973C33.6204 31.6228 35.5666 30.3132 37.7908 29.3686C40.0579 28.3811 42.4532 27.8873 44.9769 27.8873C47.5005 27.8873 49.8745 28.3811 52.0987 29.3686C54.3658 30.3132 56.3334 31.6228 58.0016 33.2973C59.6697 34.9718 60.9744 36.9469 61.9154 39.2225C62.8992 41.4552 63.3911 43.8382 63.3911 46.3715V57.8557Z" fill="url(#paint0_linear)"/>
</g>
<g filter="url(#filter1_i)">
<path fill-rule="evenodd" clip-rule="evenodd" d="M48.9344 223.338C46.1726 223.338 43.6736 221.7 42.5708 219.168L40.059 213.401C38.9406 210.833 36.399 209.179 33.5979 209.196L29.3241 209.222C25.4751 209.246 22.3674 212.431 22.3674 216.28V216.28C22.3674 220.146 19.2334 223.338 15.3674 223.338H15.1981C11.3321 223.338 8.19813 220.204 8.19813 216.338V160.025C8.19813 156.159 11.3321 153.025 15.1981 153.025H36.5368C39.1369 153.025 41.6384 153.368 44.0411 154.054C46.4438 154.708 48.6819 155.656 50.7554 156.898C51.9174 157.565 53.0193 158.312 54.061 159.139C54.9079 159.81 55.715 160.534 56.4824 161.311C56.9195 161.737 57.3401 162.175 57.7441 162.626C58.8127 163.818 60.7223 163.91 61.8579 162.782V162.782C63.074 161.574 64.3582 160.463 65.7104 159.448C66.8467 158.596 68.031 157.811 69.2634 157.094C71.9953 155.525 74.9081 154.316 78.002 153.466C81.1288 152.583 84.3708 152.142 87.728 152.142C91.0852 152.142 94.3272 152.583 97.454 153.466C100.294 154.238 102.957 155.306 105.443 156.671C105.695 156.809 105.945 156.95 106.193 157.094C108.891 158.663 111.36 160.559 113.598 162.782V162.782C113.614 162.798 113.642 162.787 113.642 162.764V155.901C113.642 154.312 114.929 153.025 116.517 153.025H120.761C124.627 153.025 127.761 156.159 127.761 160.025V195.242C127.761 196.78 127.992 198.246 128.453 199.639C128.458 199.654 128.463 199.669 128.468 199.684C128.581 200.022 128.707 200.356 128.848 200.685C129.199 201.473 129.606 202.215 130.07 202.912C130.607 203.718 131.22 204.463 131.909 205.147C133.192 206.422 134.69 207.435 136.401 208.187C138.146 208.906 139.989 209.265 141.931 209.265C143.873 209.265 145.699 208.906 147.411 208.187C149.155 207.435 150.669 206.422 151.953 205.147C153.237 203.872 154.24 202.384 154.965 200.685C155.722 198.985 156.1 197.171 156.1 195.242V160.025C156.1 156.159 159.234 153.025 163.1 153.025H169.912C172.367 153.025 174.642 154.31 175.908 156.413L181.536 165.755C184.26 170.277 190.818 170.271 193.534 165.745L199.13 156.422C200.395 154.314 202.674 153.025 205.132 153.025H205.797C211.279 153.025 214.633 159.041 211.752 163.704L198.901 184.502C197.507 186.757 197.507 189.606 198.901 191.861L211.751 212.658C214.633 217.322 211.279 223.338 205.797 223.338H205.132C202.674 223.338 200.395 222.048 199.13 219.94L193.534 210.617C190.818 206.091 184.26 206.086 181.536 210.608L175.908 219.95C174.642 222.052 172.367 223.338 169.912 223.338H158.531C157.769 223.338 157.302 222.501 157.703 221.853L158.43 220.676C158.919 219.885 157.582 218.688 156.785 219.169V219.169C155.611 219.879 154.373 220.514 153.072 221.075C153.028 221.094 152.984 221.113 152.94 221.131C151.189 221.884 149.373 222.444 147.492 222.812C145.697 223.163 143.843 223.338 141.931 223.338C138.014 223.338 134.328 222.602 130.872 221.131C127.874 219.843 125.204 218.154 122.863 216.063C122.531 215.767 122.205 215.462 121.886 215.149C121.648 214.909 121.414 214.665 121.184 214.418C119.233 212.31 115.636 212.145 113.598 214.169V214.169C113.03 214.733 112.447 215.277 111.849 215.802C110.092 217.343 108.206 218.711 106.193 219.906C103.494 221.475 100.581 222.684 97.454 223.534C94.3272 224.417 91.0852 224.858 87.728 224.858C84.3708 224.858 81.1288 224.417 78.002 223.534C74.9081 222.684 71.9953 221.475 69.2634 219.906C68.1128 219.223 67.004 218.483 65.937 217.688C64.5015 216.617 63.1418 215.444 61.8579 214.169C60.5979 212.917 59.4371 211.594 58.3754 210.197C57.551 209.113 56.7864 207.985 56.0815 206.814C55.4988 205.813 54.963 204.788 54.4743 203.738V203.738C54.3291 203.426 53.9303 203.328 53.6555 203.535C53.328 203.782 52.9946 204.022 52.6554 204.255C52.0538 204.669 51.8061 205.446 52.0928 206.117L55.318 213.672C57.2728 218.251 53.9133 223.338 48.9344 223.338V223.338ZM170.147 196.204C170.147 198.252 172.862 198.982 173.882 197.205L177.793 190.393C178.159 189.757 178.146 188.971 177.76 188.346L173.849 182.016C172.79 180.302 170.147 181.053 170.147 183.068V189.686C170.147 189.686 170.147 189.686 170.147 189.686C170.147 189.686 170.147 189.686 170.147 196.204ZM42.0169 168.225C40.3054 167.473 38.4787 167.097 36.5368 167.097H29.3674C25.5015 167.097 22.3674 170.231 22.3674 174.097V188.242C22.3674 192.108 25.5015 195.242 29.3674 195.242H36.5368C38.4787 195.242 40.3054 194.882 42.0169 194.163C42.417 193.988 42.8055 193.797 43.1823 193.593C44.417 192.923 45.5261 192.1 46.5096 191.123C47.3142 190.324 48.0089 189.442 48.5937 188.475C48.9418 187.9 49.251 187.296 49.5212 186.661C50.2782 184.929 50.6567 183.098 50.6567 181.17C50.6567 180.171 50.5552 179.203 50.3521 178.265C50.3505 178.258 50.3489 178.25 50.3472 178.243C50.1583 177.378 49.883 176.539 49.5212 175.727C48.7971 173.994 47.7932 172.491 46.5096 171.216C46.4817 171.188 46.4537 171.161 46.4256 171.133C45.1608 169.898 43.6912 168.928 42.0169 168.225ZM67.4027 198.135C67.6119 198.556 67.8323 198.969 68.0639 199.373C69.0848 201.154 70.324 202.768 71.7813 204.215C73.822 206.242 76.2082 207.843 78.94 209.02C81.6719 210.197 84.6012 210.785 87.728 210.785C90.8219 210.785 93.7347 210.197 96.4665 209.02C99.2313 207.843 101.618 206.242 103.625 204.215C104.482 203.364 105.263 202.456 105.969 201.49C106.944 200.155 107.776 198.71 108.464 197.154C108.738 196.527 108.98 195.889 109.191 195.242C109.891 193.093 110.241 190.837 110.241 188.475C110.241 185.403 109.648 182.51 108.464 179.797C107.656 177.925 106.649 176.227 105.443 174.705C104.881 173.994 104.275 173.321 103.625 172.687C101.618 170.66 99.2313 169.058 96.4665 167.882C93.7347 166.705 90.8219 166.116 87.728 166.116C84.6012 166.116 81.6719 166.705 78.94 167.882C76.285 169.025 73.9564 170.571 71.9542 172.517C71.8963 172.573 71.8387 172.63 71.7813 172.687C69.7407 174.681 68.1279 177.051 66.943 179.797C66.7454 180.249 66.5642 180.707 66.3995 181.17C65.577 183.48 65.1657 185.915 65.1657 188.475C65.1657 188.503 65.1657 188.53 65.1658 188.557C65.1659 188.563 65.1659 188.569 65.1659 188.575C65.1785 191.611 65.7709 194.47 66.943 197.154C67.0698 197.441 67.2015 197.724 67.338 198.003C67.3595 198.047 67.381 198.091 67.4027 198.135ZM74.4573 193.899C75.2407 195.665 76.2778 197.166 77.5783 198.458C78.8667 199.737 80.3856 200.768 82.2022 201.551C83.8532 202.262 85.6662 202.643 87.728 202.643C89.7443 202.643 91.5424 202.266 93.2044 201.551L93.2207 201.543L93.2371 201.536C95.0731 200.755 96.5584 199.739 97.7813 198.505L97.8047 198.481L97.8283 198.458C99.1288 197.166 100.166 195.665 100.949 193.899C101.666 192.252 102.043 190.472 102.043 188.475C102.043 186.473 101.663 184.687 100.942 183.037L100.935 183.02L100.928 183.004C100.141 181.181 99.1186 179.705 97.8756 178.491L97.8281 178.444L97.7813 178.397C96.5584 177.163 95.0731 176.147 93.2371 175.365L93.2207 175.358L93.2044 175.351C91.5424 174.635 89.7443 174.259 87.728 174.259C85.6662 174.259 83.8532 174.64 82.2022 175.351C80.3856 176.134 78.8667 177.165 77.5783 178.444L77.5547 178.468L77.531 178.491C76.288 179.705 75.2652 181.181 74.4783 183.004L74.4713 183.02L74.4642 183.037C73.7433 184.687 73.3639 186.473 73.3639 188.475C73.3639 190.472 73.7409 192.252 74.4573 193.899ZM38.7642 186.689C39.5504 186.335 40.1804 185.894 40.7126 185.366C41.2318 184.85 41.6483 184.246 41.9709 183.489L41.9856 183.454L42.0006 183.42C42.3011 182.732 42.4585 182.007 42.4585 181.17C42.4585 180.332 42.3012 179.644 42.0237 179.02L41.9856 178.935L41.9494 178.848C41.6203 178.061 41.2057 177.463 40.7126 176.973C40.1934 176.458 39.5853 176.044 38.8225 175.724L38.7614 175.698L38.7007 175.671C38.0732 175.396 37.3805 175.239 36.5368 175.239V175.239C33.2615 175.239 30.5656 177.894 30.5656 181.17V181.17C30.5656 184.445 33.2615 187.1 36.5368 187.1V187.1C37.4051 187.1 38.1234 186.949 38.7642 186.689ZM72.1502 230.21C71.7643 230.069 71.3887 230.457 71.5501 230.835V230.835C71.6804 231.141 71.4564 231.48 71.1243 231.48H43.5869C40.8016 231.48 38.2813 229.829 37.1691 227.275L33.2065 218.176C32.9864 217.671 32.4862 217.345 31.9348 217.348V217.348C31.1773 217.353 30.5656 217.969 30.5656 218.726V224.48C30.5656 228.346 27.4316 231.48 23.5656 231.48H6.99997C3.13398 231.48 -2.77987e-05 228.346 -2.77987e-05 224.48V151.883C-2.77987e-05 148.017 3.13398 144.883 6.99998 144.883H36.5368C39.8552 144.883 43.1044 145.32 46.2573 146.215C49.3225 147.054 52.2203 148.276 54.9243 149.887C55.0922 149.984 55.2592 150.082 55.4253 150.182C58.2735 151.888 61.9049 151.976 64.7596 150.281C64.88 150.209 65.0008 150.138 65.1219 150.068L65.1405 150.057L65.1592 150.046C68.496 148.13 72.0456 146.657 75.7887 145.626C79.6595 144.536 83.6477 144 87.728 144C91.8045 144 95.789 144.535 99.6564 145.623C101.107 146.019 102.527 146.48 103.914 147.008C104.645 147.287 105.443 146.757 105.443 145.975V145.975C105.443 145.371 105.932 144.883 106.535 144.883H128.96C132.826 144.883 135.96 148.017 135.96 151.883V195.242C135.96 196.104 136.111 196.818 136.374 197.454C136.73 198.235 137.173 198.861 137.706 199.389C138.232 199.912 138.854 200.349 139.629 200.701C140.325 200.976 141.071 201.123 141.931 201.123C142.811 201.123 143.537 200.969 144.184 200.702C145.011 200.341 145.643 199.899 146.156 199.389C146.675 198.874 147.092 198.27 147.414 197.512L147.44 197.451L147.467 197.391C147.745 196.768 147.902 196.08 147.902 195.242V154.215V151.883C147.902 148.017 151.036 144.883 154.902 144.883H174.561C177.015 144.883 179.291 146.168 180.557 148.271L181.523 149.875C184.247 154.396 190.805 154.391 193.521 149.865L194.473 148.28C195.738 146.172 198.016 144.883 200.475 144.883H220.446C225.928 144.883 229.283 150.899 226.401 155.562L208.52 184.502C207.126 186.757 207.126 189.606 208.52 191.861L226.401 220.8C229.283 225.464 225.928 231.48 220.446 231.48H200.475C198.016 231.48 195.738 230.19 194.473 228.082L193.521 226.497C190.805 221.971 184.247 221.966 181.523 226.488L180.557 228.092C179.291 230.194 177.015 231.48 174.561 231.48H142.136C142.067 231.48 141.999 231.48 141.931 231.48C136.951 231.48 132.161 230.539 127.642 228.615L127.629 228.61L127.616 228.604C125.701 227.781 123.879 226.822 122.154 225.726C119.16 223.823 115.224 223.774 112.262 225.728C111.651 226.131 111.03 226.52 110.398 226.895L110.366 226.914L110.334 226.932C107.004 228.868 103.436 230.346 99.656 231.377C95.7888 232.465 91.8043 233 87.728 233C83.6479 233 79.6599 232.464 75.7893 231.374C74.555 231.034 73.3417 230.646 72.1502 230.21Z" fill="url(#paint1_linear)"/>
</g>
<defs>
<filter id="filter0_i" x="0" y="0" width="515" height="114" filterUnits="userSpaceOnUse" color-interpolation-filters="sRGB">
<feFlood flood-opacity="0" result="BackgroundImageFix"/>
<feBlend mode="normal" in="SourceGraphic" in2="BackgroundImageFix" result="shape"/>
<feColorMatrix in="SourceAlpha" type="matrix" values="0 0 0 0 0 0 0 0 0 0 0 0 0 0 0 0 0 0 127 0" result="hardAlpha"/>
<feOffset dy="2"/>
<feGaussianBlur stdDeviation="2"/>
<feComposite in2="hardAlpha" operator="arithmetic" k2="-1" k3="1"/>
<feColorMatrix type="matrix" values="0 0 0 0 0 0 0 0 0 0 0 0 0 0 0 0 0 0 0.25 0"/>
<feBlend mode="normal" in2="shape" result="effect1_innerShadow"/>
</filter>
<filter id="filter1_i" x="0" y="144" width="227.457" height="91" filterUnits="userSpaceOnUse" color-interpolation-filters="sRGB">
<feFlood flood-opacity="0" result="BackgroundImageFix"/>
<feBlend mode="normal" in="SourceGraphic" in2="BackgroundImageFix" result="shape"/>
<feColorMatrix in="SourceAlpha" type="matrix" values="0 0 0 0 0 0 0 0 0 0 0 0 0 0 0 0 0 0 127 0" result="hardAlpha"/>
<feOffset dy="2"/>
<feGaussianBlur stdDeviation="2"/>
<feComposite in2="hardAlpha" operator="arithmetic" k2="-1" k3="1"/>
<feColorMatrix type="matrix" values="0 0 0 0 0 0 0 0 0 0 0 0 0 0 0 0 0 0 0.25 0"/>
<feBlend mode="normal" in2="shape" result="effect1_innerShadow"/>
</filter>
<linearGradient id="paint0_linear" x1="248.05" y1="1027.48" x2="258.088" y2="-316.517" gradientUnits="userSpaceOnUse">
<stop offset="0.480829" stop-color="#161569"/>
<stop offset="0.589719" stop-color="#2F3F80"/>
<stop offset="0.691933" stop-color="#505488"/>
<stop offset="0.804815" stop-color="#00B7D4"/>
</linearGradient>
<linearGradient id="paint1_linear" x1="112.225" y1="960.478" x2="126.233" y2="-107.394" gradientUnits="userSpaceOnUse">
<stop offset="0.480829" stop-color="#161569"/>
<stop offset="0.589719" stop-color="#2F3F80"/>
<stop offset="0.691933" stop-color="#505488"/>
<stop offset="0.804815" stop-color="#00B7D4"/>
</linearGradient>
</defs>
</svg>
