<svg width="669" height="99" viewBox="0 0 669 99" fill="none" xmlns="http://www.w3.org/2000/svg">
<path d="M0 0L15.9352 2.04961C31.8704 4.25391 63.6479 8.1211 95.7042 20.6121C127.435 32.8711 159.352 53.7539 190.944 49.5C223 45.2461 255.056 16.6289 286.648 10.3254C318.565 4.25391 350.296 20.4961 382.352 37.125C414.13 53.7539 446 69.9961 478.056 74.25C509.694 78.5039 541.704 69.9961 573.296 55.6875C605.306 41.3789 636.944 20.4961 653.204 10.3254L669 0V99H653.065C637.13 99 605.352 99 573.296 99C541.565 99 509.648 99 478.056 99C446 99 413.944 99 382.352 99C350.435 99 318.704 99 286.648 99C254.87 99 223 99 190.944 99C159.306 99 127.296 99 95.7042 99C63.6944 99 32.0562 99 15.7958 99H0V0Z" fill="#161569"/>
</svg>
