<svg width="669" height="65" viewBox="0 0 669 65" fill="none" xmlns="http://www.w3.org/2000/svg">
<path d="M0 0L15.9352 1.3457C31.8704 2.79297 63.6479 5.33203 95.7042 13.5332C127.435 21.582 159.352 35.293 190.944 32.5C223 29.707 255.056 10.918 286.648 6.7793C318.565 2.79297 350.296 13.457 382.352 24.375C414.13 35.293 446 45.957 478.056 48.75C509.694 51.543 541.704 45.957 573.296 36.5625C605.306 27.168 636.944 13.457 653.204 6.7793L669 0V65H653.065C637.13 65 605.352 65 573.296 65C541.565 65 509.648 65 478.056 65C446 65 413.944 65 382.352 65C350.435 65 318.704 65 286.648 65C254.87 65 223 65 190.944 65C159.306 65 127.296 65 95.7042 65C63.6944 65 32.0562 65 15.7958 65H0V0Z" fill="#00B7D4"/>
</svg>
