<svg width="669" height="75" viewBox="0 0 669 75" fill="none" xmlns="http://www.w3.org/2000/svg">
<path d="M0 0L15.9352 1.55274C31.8704 3.22266 63.6479 6.15234 95.7042 15.6152C127.435 24.9023 159.352 40.7227 190.944 37.5C223 34.2773 255.056 12.5977 286.648 7.82227C318.565 3.22266 350.296 15.5273 382.352 28.125C414.13 40.7227 446 53.0273 478.056 56.25C509.694 59.4727 541.704 53.0273 573.296 42.1875C605.306 31.3477 636.944 15.5273 653.204 7.82227L669 0V75H653.065C637.13 75 605.352 75 573.296 75C541.565 75 509.648 75 478.056 75C446 75 413.944 75 382.352 75C350.435 75 318.704 75 286.648 75C254.87 75 223 75 190.944 75C159.306 75 127.296 75 95.7042 75C63.6944 75 32.0562 75 15.7958 75H0V0Z" fill="url(#paint0_linear)"/>
<defs>
<linearGradient id="paint0_linear" x1="-480.641" y1="303.683" x2="223.283" y2="-507.582" gradientUnits="userSpaceOnUse">
<stop stop-color="#161569"/>
<stop offset="0.276042" stop-color="#2F3F80"/>
<stop offset="0.567708" stop-color="#505488"/>
<stop offset="0.9999" stop-color="#00B7D4"/>
<stop offset="1" stop-color="#F6FCFC"/>
</linearGradient>
</defs>
</svg>
