<svg width="218" height="86" viewBox="0 0 218 86" fill="none" xmlns="http://www.w3.org/2000/svg">
<g filter="url(#filter0_i)">
<path fill-rule="evenodd" clip-rule="evenodd" d="M30.6294 41.7941C28.533 41.7941 26.8335 40.0947 26.8335 37.9983V37.9983C26.8335 35.9019 25.134 34.2024 23.0376 34.2024H15.0399C12.9435 34.2024 11.244 35.9019 11.244 37.9983V37.9983C11.244 40.0947 9.54454 41.7941 7.44814 41.7941H7.3602C5.21524 41.7941 3.47641 40.0553 3.47641 37.9103V19.0454C3.47641 16.9469 3.8838 14.9806 4.69858 13.1466C5.51336 11.295 6.61785 9.68143 8.01203 8.30592C9.42432 6.93042 11.072 5.84589 12.955 5.05233C14.8562 4.25877 16.8841 3.86199 19.0388 3.86199C21.1934 3.86199 23.2123 4.25877 25.0953 5.05233C26.9965 5.84589 28.6532 6.93042 30.0655 8.30592C30.0862 8.32609 30.1068 8.34631 30.1274 8.36657C31.5104 9.72879 32.6033 11.3221 33.4061 13.1466V13.1466C33.4499 13.2453 33.6038 13.2145 33.6038 13.1065V5.44247C33.6038 4.56959 34.3114 3.86199 35.1843 3.86199H39.1128C40.868 3.86199 42.4947 4.78234 43.3987 6.28688L47.675 13.4042C50.2859 17.7496 56.9609 15.8986 56.9609 10.8291V8.86199C56.9609 6.10056 59.1995 3.86199 61.9609 3.86199H91.3845C94.1459 3.86199 96.3844 6.10057 96.3844 8.86199V14.0454C96.3844 16.8069 98.623 19.0454 101.384 19.0454H106.947C109.708 19.0454 111.947 16.8069 111.947 14.0454V7.75936C111.947 5.6069 113.692 3.86199 115.844 3.86199H117.732C118.842 3.86199 119.742 4.7616 119.742 5.87133V13.0692C119.742 13.1176 119.806 13.1352 119.831 13.0937V13.0937C120.718 11.6477 121.777 10.3251 123.008 9.12593C123.078 9.05825 123.148 8.99113 123.218 8.92458C124.393 7.81188 125.681 6.85619 127.082 6.0575C128.585 5.21104 130.187 4.55856 131.889 4.10006C133.61 3.62392 135.393 3.38585 137.24 3.38585C139.087 3.38585 140.87 3.62392 142.59 4.10006C144.31 4.55856 145.913 5.21104 147.397 6.0575C148.788 6.85005 150.067 7.79719 151.235 8.89893C151.314 8.97388 151.393 9.04955 151.471 9.12593C152.703 10.3251 153.753 11.6477 154.622 13.0937V13.0937C154.647 13.1352 154.711 13.1176 154.711 13.0692V5.86993C154.711 4.76098 155.61 3.86199 156.719 3.86199H160.22C161.975 3.86199 163.602 4.78234 164.506 6.28688L168.782 13.4042C171.393 17.7496 178.068 15.8986 178.068 10.8291V8.86199C178.068 6.10056 180.307 3.86199 183.068 3.86199H186.166C188.928 3.86199 191.166 6.10057 191.166 8.86199V15.2363C191.166 16.2768 191.366 17.2643 191.764 18.199C192.18 19.116 192.742 19.9183 193.448 20.6061C194.154 21.2938 194.978 21.8405 195.919 22.2461C196.879 22.6341 197.893 22.8281 198.961 22.8281C200.03 22.8281 201.034 22.6341 201.976 22.2461C202.936 21.8405 203.768 21.2938 204.475 20.6061C205.181 19.9183 205.733 19.116 206.131 18.199C206.548 17.2643 206.756 16.2768 206.756 15.2363V7.74578C206.756 5.60082 208.495 3.86199 210.64 3.86199V3.86199C212.785 3.86199 214.524 5.60082 214.524 7.74579V15.2363C214.524 16.9822 214.234 18.6486 213.654 20.2358C213.093 21.8053 212.297 23.2425 211.264 24.5474C210.232 25.8348 209.001 26.9458 207.571 27.8804C207.221 28.109 206.862 28.3223 206.495 28.5203C204.47 29.6126 202.845 31.5348 202.845 33.8361V37.9103C202.845 40.0553 201.106 41.7941 198.961 41.7941V41.7941C196.816 41.7941 195.077 40.0553 195.077 37.9103V33.8361C195.077 31.5348 193.455 29.6097 191.424 28.527C191.049 28.3271 190.683 28.1116 190.325 27.8804C189.985 27.6584 189.656 27.4265 189.339 27.1847C188.321 26.4082 187.418 25.5291 186.631 24.5474V24.5474C186.388 24.2408 185.863 24.4063 185.863 24.7972V37.5504C185.863 39.8942 183.963 41.7941 181.619 41.7941H180.352C178.598 41.7941 176.972 40.8746 176.068 39.3712L171.79 32.2601C169.178 27.9169 162.506 29.7689 162.506 34.8372V37.8968C162.506 40.0492 160.761 41.7941 158.608 41.7941H156.637C155.573 41.7941 154.711 40.932 154.711 39.8685V32.9041C154.711 32.8556 154.647 32.8382 154.622 32.8798V32.8798C153.753 34.3259 152.703 35.6485 151.471 36.8476C151.393 36.924 151.314 36.9997 151.235 37.0747C150.067 38.1775 148.788 39.1334 147.397 39.9425C145.913 40.789 144.31 41.4414 142.59 41.8999C140.87 42.3761 139.087 42.6141 137.24 42.6141C135.393 42.6141 133.61 42.3761 131.889 41.8999C130.187 41.4414 128.585 40.789 127.082 39.9425C125.681 39.1272 124.393 38.1627 123.218 37.0491C123.148 36.9824 123.078 36.9153 123.008 36.8476C121.777 35.6485 120.718 34.3259 119.831 32.8798V32.8798C119.806 32.8382 119.742 32.8556 119.742 32.9041V39.8672C119.742 40.9314 118.879 41.7941 117.815 41.7941H115.844C113.692 41.7941 111.947 40.0492 111.947 37.8968V31.6371C111.947 28.8757 109.708 26.6371 106.947 26.6371H101.384C98.623 26.6371 96.3844 28.8757 96.3844 31.6371V37.8968C96.3844 40.0492 94.6395 41.7941 92.4871 41.7941V41.7941C90.3346 41.7941 88.5897 40.0492 88.5897 37.8968V15.4635C88.5897 13.249 86.7944 11.4537 84.5799 11.4537V11.4537C82.3653 11.4537 80.5701 13.249 80.5701 15.4635V37.9103C80.5701 40.0553 78.8312 41.7941 76.6863 41.7941V41.7941C74.5413 41.7941 72.8025 40.0553 72.8025 37.9103V15.4771C72.8025 13.255 71.0011 11.4537 68.7791 11.4537V11.4537C66.557 11.4537 64.7557 13.255 64.7557 15.4771V36.7941C64.7557 39.5556 62.5171 41.7941 59.7557 41.7941H59.2451C57.4907 41.7941 55.8647 40.8746 54.9604 39.3713L50.6832 32.2601C48.0709 27.9169 41.3986 29.7689 41.3986 34.8372V36.7941C41.3986 39.5556 39.16 41.7941 36.3986 41.7941H30.6294ZM27.153 45.18C25.0566 45.18 23.3571 43.4805 23.3571 41.3841V41.3841C23.3571 39.2877 21.6576 37.5883 19.5612 37.5883H18.5163C16.4199 37.5883 14.7204 39.2877 14.7204 41.3841V41.3841C14.7204 43.4805 13.0209 45.18 10.9245 45.18H5C2.23858 45.18 0 42.9414 0 40.18V19.0454C0 16.51 0.494496 14.0855 1.50564 11.8075C2.48412 9.58559 3.82699 7.61538 5.53803 5.92726L5.54591 5.91949L5.55384 5.91176C7.28449 4.22619 9.30049 2.90322 11.5745 1.94489L11.5801 1.94256L11.5856 1.94024C13.9376 0.95852 16.4333 0.476136 19.0388 0.476136C21.6419 0.476136 24.1312 0.957726 26.4701 1.94249C27.0605 2.18913 27.6335 2.46007 28.1885 2.75534C29.0357 3.20603 30.1274 2.62459 30.1274 1.66502V1.66502C30.1274 1.00842 30.6597 0.476136 31.3163 0.476136H41.4207C42.9809 0.476136 44.4268 1.29423 45.2304 2.63159L47.0763 5.70377C48.8781 8.7026 53.4845 7.42516 53.4845 3.92667V3.92667C53.4845 2.02099 55.0294 0.476136 56.935 0.476136H94.8609C97.6223 0.476136 99.8609 2.71471 99.8609 5.47613V11.3548C99.8609 13.7323 101.788 15.6596 104.166 15.6596V15.6596C106.543 15.6596 108.47 13.7323 108.47 11.3548V5.47614C108.47 2.71471 110.709 0.476136 113.47 0.476136H121.859C122.609 0.476136 123.218 1.08461 123.218 1.8352V1.98329C123.218 3.02963 124.417 3.6537 125.326 3.13546V3.13546L125.334 3.13096L125.342 3.12649C127.101 2.13557 128.973 1.37364 130.951 0.839951C132.986 0.277628 135.086 0 137.24 0C139.392 0 141.49 0.277197 143.524 0.838626C145.521 1.37236 147.401 2.13644 149.154 3.13546V3.13546C150.051 3.64727 151.235 3.03056 151.235 1.99719V1.83016C151.235 1.08235 151.841 0.476136 152.589 0.476136H162.528C164.088 0.476136 165.534 1.29423 166.338 2.6316L168.183 5.70378C169.985 8.70261 174.592 7.42517 174.592 3.92667V3.92667C174.592 2.02099 176.136 0.476136 178.042 0.476136H189.643C192.404 0.476136 194.643 2.71472 194.643 5.47614V15.2363C194.643 15.8302 194.752 16.3643 194.96 16.8656C195.206 17.3965 195.521 17.8371 195.906 18.2119C196.291 18.5868 196.743 18.8938 197.288 19.1334C197.803 19.3363 198.352 19.4422 198.961 19.4422C199.579 19.4422 200.117 19.3335 200.607 19.1338C201.178 18.8905 201.637 18.5814 202.016 18.2119C202.398 17.8399 202.702 17.4049 202.93 16.8797L202.936 16.8654L202.942 16.8511C203.165 16.351 203.28 15.8232 203.28 15.2363V5.47614C203.28 2.71471 205.518 0.476136 208.28 0.476136H213C215.761 0.476136 218 2.71472 218 5.47614V15.2363C218 17.3513 217.648 19.3995 216.933 21.3613C216.251 23.2662 215.278 25.0215 214.019 26.6136L214.012 26.6224L214.005 26.6312C212.74 28.2087 211.235 29.5632 209.508 30.6921C209.445 30.7333 209.381 30.774 209.318 30.8144C207.598 31.9086 206.321 33.6894 206.321 35.7282V40.18C206.321 42.9414 204.083 45.18 201.321 45.18H196.601C193.84 45.18 191.601 42.9414 191.601 40.18V33.0666C191.601 32.6376 191.338 32.254 190.947 32.0793V32.0793C190.212 31.7517 189.339 32.2655 189.339 33.0702V40.18C189.339 42.9414 187.101 45.18 184.339 45.18H178.046C176.486 45.18 175.041 44.3625 174.237 43.0259L172.388 39.9522C170.586 36.9557 165.982 38.2335 165.982 41.7303V41.7303C165.982 43.6355 164.438 45.18 162.532 45.18H152.474C151.789 45.18 151.235 44.6252 151.235 43.9409V43.9409C151.235 42.9291 150.055 42.34 149.181 42.849V42.849L149.167 42.8568L149.154 42.8645C147.401 43.8636 145.521 44.6277 143.524 45.1614C141.49 45.7228 139.392 46 137.24 46C135.086 46 132.987 45.7224 130.951 45.1601C128.974 44.6264 127.101 43.8645 125.342 42.8735L125.32 42.8614L125.299 42.849C125.287 42.842 125.275 42.8349 125.263 42.8279C124.385 42.3149 123.218 42.9188 123.218 43.9357V43.9357C123.218 44.6229 122.661 45.18 121.974 45.18H113.47C110.709 45.18 108.47 42.9414 108.47 40.18V34.3278C108.47 31.9503 106.543 30.023 104.166 30.023V30.023C101.788 30.023 99.8609 31.9503 99.8609 34.3278V40.18C99.8609 42.9414 97.6223 45.18 94.8609 45.18H90.1133C87.3519 45.18 85.1133 42.9414 85.1133 40.18V15.373C85.1133 15.0784 84.8745 14.8396 84.5799 14.8396V14.8396C84.2853 14.8396 84.0465 15.0784 84.0465 15.373V40.18C84.0465 42.9414 81.8079 45.18 79.0465 45.18H74.3261C71.5646 45.18 69.326 42.9414 69.326 40.18V15.3866C69.326 15.0845 69.0812 14.8396 68.7791 14.8396V14.8396C68.477 14.8396 68.2321 15.0845 68.2321 15.3866V40.18C68.2321 42.9414 65.9935 45.18 63.2321 45.18H56.9389C55.3792 45.18 53.9335 44.3625 53.1296 43.0259L51.2809 39.9522C49.4785 36.9557 44.875 38.2334 44.875 41.7303V41.7303C44.875 43.6355 43.3305 45.18 41.4253 45.18H27.153ZM128.467 14.4692C129.59 13.3759 130.903 12.5118 132.405 11.8769C133.908 11.2421 135.52 10.9247 137.24 10.9247C138.942 10.9247 140.544 11.2421 142.047 11.8769C143.568 12.5118 144.881 13.3759 145.985 14.4692C147.108 15.5449 147.995 16.8235 148.647 18.3048C149.299 19.7684 149.625 21.3291 149.625 22.9868C149.625 24.6444 149.299 26.2051 148.647 27.6688C147.995 29.1148 147.108 30.3845 145.985 31.4779C144.881 32.5712 143.568 33.4353 142.047 34.0702C140.544 34.705 138.942 35.0224 137.24 35.0224C135.52 35.0224 133.908 34.705 132.405 34.0702C130.903 33.4353 129.59 32.5712 128.467 31.4779C127.345 30.3845 126.458 29.1148 125.806 27.6688C125.154 26.2051 124.828 24.6444 124.828 22.9868C124.828 21.3291 125.154 19.7684 125.806 18.3048C126.458 16.8235 127.345 15.5449 128.467 14.4692ZM128.993 26.316C129.474 27.3817 130.117 28.2963 130.926 29.0837C131.729 29.8664 132.674 30.493 133.789 30.9639C134.833 31.4051 135.971 31.6366 137.24 31.6366C138.485 31.6366 139.615 31.4071 140.664 30.9639L140.671 30.961L140.678 30.9581C141.805 30.4876 142.735 29.8672 143.507 29.1032L143.517 29.0934L143.527 29.0837C144.335 28.2963 144.978 27.3817 145.46 26.316C145.913 25.2957 146.148 24.1972 146.148 22.9868C146.148 21.7741 145.913 20.6739 145.457 19.6521L145.454 19.6453L145.451 19.6385C144.968 18.5408 144.331 17.6344 143.547 16.8828L143.527 16.8635L143.507 16.8439C142.735 16.0799 141.805 15.4595 140.678 14.989L140.671 14.9861L140.664 14.9832C139.615 14.54 138.485 14.3105 137.24 14.3105C135.971 14.3105 134.833 14.542 133.789 14.9832C132.674 15.4541 131.729 16.0807 130.926 16.8634L130.916 16.8731L130.905 16.8828C130.121 17.6344 129.484 18.5408 129.001 19.6385L128.998 19.6453L128.995 19.6521C128.54 20.6739 128.304 21.7741 128.304 22.9868C128.304 24.1972 128.539 25.2957 128.993 26.316ZM23.0134 17.4433L22.9981 17.4073C22.7672 16.8657 22.4649 16.4311 22.0939 16.0698C21.723 15.7086 21.2768 15.4141 20.7207 15.1893L20.6838 15.1743L20.6472 15.1586C20.1654 14.951 19.6414 14.8396 19.0388 14.8396C18.4362 14.8396 17.8943 14.9511 17.3808 15.1681L17.3662 15.1743L17.3514 15.1804C16.8122 15.4025 16.3656 15.6978 15.9836 16.0698C15.6043 16.4392 15.287 16.8862 15.0372 17.4424C14.8321 17.9196 14.7204 18.4433 14.7204 19.0454V19.0454C14.7204 21.3683 16.6034 23.2513 18.9263 23.2513H19.1512C21.4741 23.2513 23.3571 21.3683 23.3571 19.0454V19.0454C23.3571 18.4585 23.2427 17.9481 23.0295 17.4789L23.0134 17.4433ZM26.8335 21.6371C26.8335 24.3986 24.5949 26.6371 21.8335 26.6371H16.244C13.4826 26.6371 11.244 24.3986 11.244 21.6371V19.0454C11.244 18.005 11.4432 17.0263 11.8415 16.1093C12.258 15.1746 12.8192 14.3634 13.5254 13.6757C14.2315 12.9879 15.0554 12.4501 15.9969 12.0621C16.9565 11.6565 17.9705 11.4537 19.0388 11.4537C20.107 11.4537 21.1119 11.6565 22.0535 12.0621C23.0131 12.4501 23.846 12.9879 24.5521 13.6757C25.2583 14.3634 25.8105 15.1746 26.2088 16.1093C26.6253 17.0263 26.8335 18.005 26.8335 19.0454V21.6371Z" fill="url(#paint0_linear)"/>
</g>
<g filter="url(#filter1_i)">
<path fill-rule="evenodd" clip-rule="evenodd" d="M19.8189 82.526C18.7648 82.526 17.8021 81.9277 17.3354 80.9826L16.6858 79.6673C16.0101 78.2991 14.6131 77.4362 13.0872 77.4446L11.6427 77.4525C10.2471 77.4601 9.11979 78.5936 9.11979 79.9892V79.9892C9.11979 81.3902 7.98403 82.526 6.58301 82.526H6.23119C4.63586 82.526 3.3426 81.2327 3.3426 79.6374V62.2448C3.3426 59.4834 5.58117 57.2448 8.3426 57.2448H14.897C15.9571 57.2448 16.977 57.3682 17.9567 57.6151C18.9363 57.8501 19.8488 58.191 20.6943 58.6376C21.1681 58.8775 21.6173 59.146 22.0421 59.4431C22.3873 59.6846 22.7164 59.945 23.0293 60.2243C23.2046 60.3749 23.3733 60.5297 23.5355 60.6889C23.993 61.1377 24.7389 61.1754 25.221 60.7532V60.7532C25.7169 60.3189 26.2405 59.9193 26.7918 59.5545C27.2551 59.2478 27.738 58.9657 28.2405 58.7081C29.3543 58.144 30.5419 57.7091 31.8034 57.4035C33.0783 57.0862 34.4001 56.9275 35.7689 56.9275C37.1377 56.9275 38.4596 57.0862 39.7345 57.4035C40.8922 57.681 41.9781 58.0652 42.9919 58.5559C43.0945 58.6056 43.1963 58.6563 43.2974 58.7081C44.3978 59.2723 45.4043 59.954 46.3168 60.7532V60.7532C46.3237 60.7592 46.3345 60.7543 46.3345 60.7451V58.3427C46.3345 57.7364 46.8261 57.2448 47.4324 57.2448H49.2131C50.8028 57.2448 52.0916 58.5336 52.0916 60.1234V72.4241C52.0916 72.9772 52.1855 73.5042 52.3734 74.0049C52.3754 74.0104 52.3775 74.0159 52.3796 74.0214C52.4257 74.1428 52.4773 74.2627 52.5345 74.381C52.6775 74.6644 52.8437 74.9313 53.033 75.1818C53.2519 75.4716 53.5018 75.7395 53.7825 75.9853C54.3059 76.4437 54.9164 76.808 55.6143 77.0784C56.3255 77.3369 57.077 77.4662 57.8688 77.4662C58.6605 77.4662 59.4053 77.3369 60.1032 77.0784C60.8144 76.808 61.4317 76.4437 61.9551 75.9853C62.4785 75.5269 62.8878 74.9922 63.183 74.381C63.4916 73.7698 63.646 73.1175 63.646 72.4241V61.986C63.646 59.3675 65.7687 57.2448 68.3871 57.2448V57.2448C69.9534 57.2448 71.4186 58.0184 72.3021 59.3117L72.3731 59.4156C74.3396 62.2945 78.5873 62.2909 80.549 59.4087L81.171 58.4949C81.7033 57.7129 82.588 57.2448 83.534 57.2448V57.2448C85.847 57.2448 87.2022 59.8491 85.8749 61.7434L82.1803 67.0162C80.9735 68.7386 80.9735 71.0322 82.1803 72.7546L85.8749 78.0274C87.2022 79.9217 85.847 82.526 83.534 82.526V82.526C82.588 82.526 81.7033 82.058 81.171 81.2759L80.549 80.3621C78.5873 77.4799 74.3396 77.4763 72.373 80.3552L71.7369 81.2865C71.2071 82.0621 70.3284 82.526 69.3892 82.526H64.6249C64.3303 82.526 64.1577 82.1943 64.3268 81.9531L64.5355 81.6553C64.7474 81.3527 64.2514 80.8533 63.9254 81.0271V81.0271C63.4466 81.2823 62.9419 81.5107 62.4115 81.7123C62.3936 81.7191 62.3756 81.7259 62.3577 81.7326C61.6435 82.0033 60.903 82.2047 60.1361 82.3368C59.4043 82.4629 58.6486 82.526 57.8688 82.526C56.2718 82.526 54.7688 82.2615 53.3598 81.7326C52.1375 81.2694 51.049 80.662 50.0943 79.9104C49.9589 79.8037 49.8262 79.6942 49.6962 79.5818C49.6037 79.4997 49.5128 79.4164 49.4238 79.3319C48.5869 78.5377 47.1847 78.4691 46.3168 79.2292V79.2292C46.0851 79.4321 45.8474 79.6279 45.6036 79.8164C44.8871 80.3704 44.1184 80.8622 43.2974 81.2919C42.197 81.856 41.0093 82.2909 39.7345 82.5965C38.4596 82.9138 37.1377 83.0725 35.7689 83.0725C34.4001 83.0725 33.0783 82.9138 31.8034 82.5965C30.5419 82.2909 29.3543 81.856 28.2405 81.2919C27.7713 81.0464 27.3192 80.7805 26.8842 80.4944C26.2989 80.1094 25.7445 79.6877 25.221 79.2292C24.7073 78.7793 24.234 78.3033 23.8011 77.8013C23.465 77.4115 23.1533 77.006 22.8659 76.5847C22.6283 76.2249 22.4098 75.8563 22.2106 75.4788V75.4788C22.1489 75.3621 21.9991 75.3243 21.8892 75.3975C21.7691 75.4776 21.647 75.5557 21.5229 75.6318C21.254 75.7969 21.1443 76.1374 21.2817 76.4214L22.3119 78.5492C23.2024 80.3886 21.8624 82.526 19.8189 82.526V82.526ZM69.3734 70.4265C69.3734 70.4265 71.3118 72.4913 72.1245 71.2432L72.1714 71.171C72.5105 70.6503 72.499 69.9758 72.1425 69.4669V69.4669C71.2886 68.2482 69.3734 68.8524 69.3734 70.3404V70.4265C69.3734 70.4265 69.3734 70.4265 69.3734 70.4265V70.4265ZM17.1314 62.7101C16.4335 62.4398 15.6887 62.3046 14.897 62.3046H14.1198C11.3584 62.3046 9.11979 64.5432 9.11979 67.3046V67.4241C9.11979 70.1855 11.3584 72.4241 14.1198 72.4241H14.897C15.6887 72.4241 16.4335 72.2948 17.1314 72.0362C17.2945 71.973 17.4529 71.9047 17.6065 71.8312C18.1099 71.5904 18.5621 71.2944 18.9631 70.9432C19.2912 70.6559 19.5744 70.3385 19.8129 69.9912C19.9548 69.7844 20.0809 69.567 20.1911 69.3389C20.4997 68.716 20.654 68.0578 20.654 67.3643C20.654 67.0052 20.6126 66.6571 20.5299 66.3201C20.5292 66.3173 20.5285 66.3146 20.5278 66.3119C20.4508 66.001 20.3386 65.6995 20.1911 65.4074C19.8958 64.7845 19.4865 64.2439 18.9631 63.7855C18.9518 63.7755 18.9404 63.7656 18.9289 63.7558C18.4132 63.3116 17.814 62.963 17.1314 62.7101ZM27.4818 73.4642C27.5671 73.6156 27.657 73.764 27.7514 73.9093C28.1676 74.5496 28.6729 75.1299 29.2671 75.6504C30.0991 76.3791 31.072 76.955 32.1859 77.3781C33.2997 77.8012 34.4941 78.0127 35.7689 78.0127C37.0304 78.0127 38.218 77.8012 39.3319 77.3781C40.4591 76.955 41.432 76.3791 42.2506 75.6504C42.5999 75.3445 42.9184 75.0179 43.2062 74.6706C43.604 74.1905 43.943 73.6709 44.2234 73.1117C44.3351 72.8859 44.434 72.6567 44.5199 72.4241C44.8053 71.6513 44.948 70.8403 44.948 69.9912C44.948 68.8864 44.7065 67.8462 44.2234 66.8707C43.894 66.1976 43.4835 65.5873 42.9919 65.0399C42.7625 64.7844 42.5154 64.5425 42.2506 64.3144C41.432 63.5857 40.4591 63.0098 39.3319 62.5867C38.218 62.1636 37.0304 61.952 35.7689 61.952C34.4941 61.952 33.2997 62.1636 32.1859 62.5867C31.1033 62.9979 30.1539 63.5534 29.3376 64.2533C29.3139 64.2736 29.2905 64.2939 29.2671 64.3144C28.4351 65.0313 27.7775 65.8834 27.2944 66.8707C27.2138 67.0335 27.1399 67.198 27.0728 67.3643C26.7374 68.1951 26.5697 69.0707 26.5697 69.9912C26.5697 70.0009 26.5697 70.0106 26.5698 70.0204C26.5698 70.0225 26.5698 70.0247 26.5698 70.0269C26.5749 71.1184 26.8165 72.1467 27.2944 73.1117C27.3461 73.2148 27.3997 73.3165 27.4554 73.4169C27.4642 73.4327 27.473 73.4485 27.4818 73.4642ZM30.3581 71.9411C30.6776 72.5763 31.1004 73.1159 31.6306 73.5803C32.156 74.0404 32.7752 74.4109 33.5159 74.6923C34.1891 74.948 34.9283 75.0852 35.7689 75.0852C36.591 75.0852 37.3242 74.9497 38.0018 74.6923L38.0085 74.6898L38.0151 74.6873C38.7637 74.4063 39.3693 74.0411 39.8679 73.5972L39.8775 73.5887L39.8871 73.5803C40.4173 73.1159 40.8402 72.5763 41.1596 71.9411C41.4517 71.3492 41.6054 70.7089 41.6054 69.9912C41.6054 69.2712 41.4507 68.6291 41.1568 68.0356L41.1539 68.0298L41.151 68.0239C40.8302 67.3683 40.4132 66.8379 39.9064 66.4012L39.887 66.3845L39.8679 66.3675C39.3693 65.9237 38.7637 65.5584 38.0151 65.2775L38.0085 65.275L38.0018 65.2724C37.3242 65.015 36.591 64.8795 35.7689 64.8795C34.9283 64.8795 34.1891 65.0167 33.5159 65.2724C32.7752 65.5538 32.156 65.9244 31.6306 66.3844L31.621 66.3929L31.6114 66.4012C31.1045 66.8379 30.6875 67.3683 30.3667 68.0239L30.3638 68.0298L30.3609 68.0356C30.067 68.6291 29.9123 69.2712 29.9123 69.9912C29.9123 70.7089 30.0661 71.3492 30.3581 71.9411ZM15.8052 69.3488C16.1257 69.2216 16.3826 69.0632 16.5996 68.8731C16.8113 68.6877 16.9811 68.4706 17.1126 68.1982L17.1186 68.1858L17.1247 68.1735C17.2472 67.9263 17.3114 67.6656 17.3114 67.3643C17.3114 67.063 17.2473 66.8157 17.1341 66.5916L17.1186 66.5609L17.1039 66.5298C16.9697 66.2466 16.8006 66.0316 16.5996 65.8555C16.3879 65.6702 16.1399 65.5214 15.8289 65.4062L15.804 65.397L15.7793 65.3874C15.5234 65.2883 15.241 65.2321 14.897 65.2321H14.5946C13.417 65.2321 12.4624 66.1867 12.4624 67.3643V67.3643C12.4624 68.542 13.417 69.4966 14.5946 69.4966H14.897C15.251 69.4966 15.5439 69.4425 15.8052 69.3488ZM29.3746 84.983C29.2342 84.9374 29.1055 85.0827 29.1698 85.2155V85.2155C29.2231 85.3256 29.1429 85.4535 29.0206 85.4535H18.7274C16.9969 85.4535 15.4164 84.4713 14.6502 82.9197L13.55 80.6919C13.4528 80.4953 13.252 80.3712 13.0327 80.3724V80.3724C12.7172 80.3742 12.4624 80.6304 12.4624 80.9458V82.9076C12.4624 84.3136 11.3225 85.4535 9.91648 85.4535H5C2.23858 85.4535 0 83.2149 0 80.4535V59.3173C0 56.5559 2.23858 54.3173 5 54.3173H14.897C16.25 54.3173 17.5748 54.4745 18.8603 54.7965C20.11 55.0981 21.2916 55.5373 22.394 56.1167C22.4113 56.1255 22.4286 56.1344 22.4459 56.1433C23.7254 56.8006 25.2718 56.8379 26.5519 56.1816V56.1816L26.5595 56.1777L26.5671 56.1739C27.9276 55.4848 29.3748 54.9553 30.901 54.5847C32.4792 54.1929 34.1053 54 35.7689 54C37.431 54 39.0556 54.1925 40.6324 54.5836C41.2504 54.7322 41.8545 54.9067 42.444 55.1072C42.7107 55.198 42.9919 55.0026 42.9919 54.721V54.721C42.9919 54.4981 43.1727 54.3173 43.3956 54.3173H50.4342C53.1956 54.3173 55.4342 56.5559 55.4342 59.3173V72.4241C55.4342 72.7342 55.496 72.9907 55.603 73.2195C55.7482 73.5003 55.9291 73.7252 56.1461 73.9153C56.3607 74.1033 56.6144 74.2603 56.9302 74.3868C57.2139 74.4857 57.5184 74.5387 57.8688 74.5387C58.2275 74.5387 58.5235 74.4832 58.7874 74.3871C59.1245 74.2573 59.3823 74.0985 59.5915 73.9153C59.8032 73.7299 59.973 73.5127 60.1046 73.2403L60.1151 73.2185L60.1261 73.1968C60.2392 72.9728 60.3034 72.7254 60.3034 72.4241V57.6727V57.6727C60.3034 55.8196 61.8056 54.3173 63.6588 54.3173H71.0608C72.1401 54.3173 73.1509 54.8521 73.7596 55.7433V55.7433C75.0559 57.6409 77.8591 57.6435 79.1522 55.7437V55.7437C79.7595 54.8514 80.769 54.3173 81.8483 54.3173H85.3914C89.4375 54.3173 91.808 58.8728 89.4862 62.1865L86.1021 67.0162C84.8953 68.7386 84.8953 71.0322 86.1021 72.7546L89.4862 77.5843C91.808 80.898 89.4375 85.4535 85.3914 85.4535H81.8483C80.769 85.4535 79.7595 84.9195 79.1522 84.0272V84.0272C77.8591 82.1273 75.0559 82.1299 73.7596 84.0275V84.0275C73.1509 84.9187 72.1401 85.4535 71.0608 85.4535H57.9523C57.9244 85.4536 57.8967 85.4535 57.8688 85.4535C55.8384 85.4535 53.8855 85.115 52.043 84.4234L52.0377 84.4214L52.0324 84.4194C51.5305 84.2292 51.0443 84.0188 50.5742 83.7881C48.835 82.9345 46.7285 82.9066 45.012 83.8049V83.8049L44.999 83.8117L44.986 83.8184C43.6283 84.5144 42.1735 85.0458 40.6323 85.4164C39.0555 85.8075 37.431 86 35.7689 86C34.1054 86 32.4794 85.8071 30.9012 85.4154C30.3831 85.2896 29.8742 85.1455 29.3746 84.983Z" fill="url(#paint1_linear)"/>
</g>
<defs>
<filter id="filter0_i" x="0" y="0" width="218" height="48" filterUnits="userSpaceOnUse" color-interpolation-filters="sRGB">
<feFlood flood-opacity="0" result="BackgroundImageFix"/>
<feBlend mode="normal" in="SourceGraphic" in2="BackgroundImageFix" result="shape"/>
<feColorMatrix in="SourceAlpha" type="matrix" values="0 0 0 0 0 0 0 0 0 0 0 0 0 0 0 0 0 0 127 0" result="hardAlpha"/>
<feOffset dy="2"/>
<feGaussianBlur stdDeviation="2"/>
<feComposite in2="hardAlpha" operator="arithmetic" k2="-1" k3="1"/>
<feColorMatrix type="matrix" values="0 0 0 0 0 0 0 0 0 0 0 0 0 0 0 0 0 0 0.25 0"/>
<feBlend mode="normal" in2="shape" result="effect1_innerShadow"/>
</filter>
<filter id="filter1_i" x="0" y="54" width="90.4001" height="34" filterUnits="userSpaceOnUse" color-interpolation-filters="sRGB">
<feFlood flood-opacity="0" result="BackgroundImageFix"/>
<feBlend mode="normal" in="SourceGraphic" in2="BackgroundImageFix" result="shape"/>
<feColorMatrix in="SourceAlpha" type="matrix" values="0 0 0 0 0 0 0 0 0 0 0 0 0 0 0 0 0 0 127 0" result="hardAlpha"/>
<feOffset dy="2"/>
<feGaussianBlur stdDeviation="2"/>
<feComposite in2="hardAlpha" operator="arithmetic" k2="-1" k3="1"/>
<feColorMatrix type="matrix" values="0 0 0 0 0 0 0 0 0 0 0 0 0 0 0 0 0 0 0.25 0"/>
<feBlend mode="normal" in2="shape" result="effect1_innerShadow"/>
</filter>
<linearGradient id="paint0_linear" x1="105" y1="422" x2="109" y2="-130" gradientUnits="userSpaceOnUse">
<stop offset="0.480829" stop-color="#161569"/>
<stop offset="0.589719" stop-color="#2F3F80"/>
<stop offset="0.691933" stop-color="#505488"/>
<stop offset="0.804815" stop-color="#00B7D4"/>
</linearGradient>
<linearGradient id="paint1_linear" x1="45.7569" y1="347.565" x2="50.1985" y2="-36.4036" gradientUnits="userSpaceOnUse">
<stop offset="0.480829" stop-color="#161569"/>
<stop offset="0.589719" stop-color="#2F3F80"/>
<stop offset="0.691933" stop-color="#505488"/>
<stop offset="0.804815" stop-color="#00B7D4"/>
</linearGradient>
</defs>
</svg>
