<svg width="180" height="153" viewBox="0 0 180 153" fill="none" xmlns="http://www.w3.org/2000/svg">
<path d="M90.2324 76.4795C90.2324 60.1416 87.498 48.0078 82.0293 40.0781C76.6289 32.1484 69.0752 28.1836 59.3682 28.1836C49.7295 28.1836 42.2441 32.1143 36.9121 39.9756C31.5801 47.8369 28.9141 60.0049 28.9141 76.4795C28.9141 92.8174 31.5801 104.951 36.9121 112.881C42.2441 120.811 49.7295 124.775 59.3682 124.775C64.2217 124.775 68.5625 123.818 72.3906 121.904C76.2188 119.922 79.4316 116.948 82.0293 112.983C84.6953 109.019 86.7119 104.028 88.0791 98.0127C89.5146 91.9287 90.2324 84.751 90.2324 76.4795ZM118.226 76.4795C118.226 90.4248 116.688 102.217 113.611 111.855C110.535 121.494 106.331 129.287 100.999 135.234C95.667 141.182 89.4121 145.488 82.2344 148.154C75.125 150.752 67.5029 152.051 59.3682 152.051C51.2334 152.051 43.5771 150.718 36.3994 148.052C29.29 145.317 23.0693 140.977 17.7373 135.029C12.4736 129.014 8.30371 121.221 5.22754 111.65C2.15137 102.012 0.613281 90.2881 0.613281 76.4795C0.613281 62.5342 2.15137 50.7764 5.22754 41.2061C8.30371 31.5674 12.4736 23.7744 17.7373 17.8271C23.0693 11.8799 29.29 7.57324 36.3994 4.90723C43.5771 2.24121 51.2334 0.908203 59.3682 0.908203C67.5029 0.908203 75.125 2.27539 82.2344 5.00977C89.4121 7.67578 95.667 12.0166 100.999 18.0322C106.331 24.0479 110.535 31.8408 113.611 41.4111C116.688 50.9814 118.226 62.6709 118.226 76.4795ZM179.031 150H149.603V32.3877H134.939V2.95898H179.031V150Z" fill="url(#paint0_linear)"/>
<defs>
<linearGradient id="paint0_linear" x1="-157.437" y1="634.759" x2="337.789" y2="550.526" gradientUnits="userSpaceOnUse">
<stop stop-color="#161569"/>
<stop offset="0.276042" stop-color="#2F3F80"/>
<stop offset="0.567708" stop-color="#505488"/>
<stop offset="0.9999" stop-color="#00B7D4"/>
<stop offset="1" stop-color="#F6FCFC"/>
</linearGradient>
</defs>
</svg>
