<svg width="1035" height="5750" fill="none" xmlns="http://www.w3.org/2000/svg">
  <path fill-rule="evenodd" clip-rule="evenodd" d="M2 5750V0H1v5750h1z" fill="#161569" fill-opacity=".08"/>
  <path fill-rule="evenodd" clip-rule="evenodd" d="M1 5750V0H0v5750h1z" fill="#161569" fill-opacity=".03"/>
  <path fill-rule="evenodd" clip-rule="evenodd" d="M252 5750V0h-1v5750h1z" fill="#161569" fill-opacity=".08"/>
  <path fill-rule="evenodd" clip-rule="evenodd" d="M251 5750V0h-1v5750h1z" fill="#161569" fill-opacity=".03"/>
  <path fill-rule="evenodd" clip-rule="evenodd" d="M502 5750V0h-1v5750h1z" fill="#161569" fill-opacity=".08"/>
  <path fill-rule="evenodd" clip-rule="evenodd" d="M501 5750V0h-1v5750h1z" fill="#161569" fill-opacity=".03"/>
  <path fill-rule="evenodd" clip-rule="evenodd" d="M783 5750V0h-1v5750h1z" fill="#161569" fill-opacity=".08"/>
  <path fill-rule="evenodd" clip-rule="evenodd" d="M782 5750V0h-1v5750h1z" fill="#161569" fill-opacity=".03"/>
  <path fill-rule="evenodd" clip-rule="evenodd" d="M1035 5750V0h-1v5750h1z" fill="#161569" fill-opacity=".08"/>
  <path fill-rule="evenodd" clip-rule="evenodd" d="M1034 5750V0h-1v5750h1z" fill="#161569" fill-opacity=".03"/>
</svg>
