<svg width="522" height="5471" fill="none" xmlns="http://www.w3.org/2000/svg">
  <path fill-rule="evenodd" clip-rule="evenodd" d="M1 4916V0h1v4916H1z" fill="#161569" fill-opacity=".08"/>
  <path fill-rule="evenodd" clip-rule="evenodd" d="M1 4916V0H0v4916h1z" fill="#161569" fill-opacity=".03"/>
  <path fill-rule="evenodd" clip-rule="evenodd" d="M393 4916V0h-1v4916h1z" fill="#161569" fill-opacity=".08"/>
  <path fill-rule="evenodd" clip-rule="evenodd" d="M392 4916V0h-1v4916h1z" fill="#161569" fill-opacity=".03"/>
  <path fill-rule="evenodd" clip-rule="evenodd" d="M522 4916V0h-1v4916h1z" fill="#161569" fill-opacity=".08"/>
  <path fill-rule="evenodd" clip-rule="evenodd" d="M521 4916V0h-1v4916h1z" fill="#161569" fill-opacity=".03"/>
  <path fill-rule="evenodd" clip-rule="evenodd" d="M261 4916V0h-1v4916h1z" fill="#161569" fill-opacity=".08"/>
  <path fill-rule="evenodd" clip-rule="evenodd" d="M260 4916V0h-1v4916h1z" fill="#161569" fill-opacity=".03"/>
  <path fill-rule="evenodd" clip-rule="evenodd" d="M131 4916V0h1v4916h-1z" fill="#161569" fill-opacity=".08"/>
  <path fill-rule="evenodd" clip-rule="evenodd" d="M131 4916V0h-1v4916h1z" fill="#161569" fill-opacity=".03"/>
</svg>
