<svg width="310" height="4916" fill="none" xmlns="http://www.w3.org/2000/svg">
  <path fill-rule="evenodd" clip-rule="evenodd" d="M1 4916V0h1v4916H1z" fill="#161569" fill-opacity=".08"/>
  <path fill-rule="evenodd" clip-rule="evenodd" d="M1 4916V0H0v4916h1z" fill="#161569" fill-opacity=".03"/>
  <path fill-rule="evenodd" clip-rule="evenodd" d="M234 4916V0h-1v4916h1z" fill="#161569" fill-opacity=".08"/>
  <path fill-rule="evenodd" clip-rule="evenodd" d="M233 4916V0h-1v4916h1z" fill="#161569" fill-opacity=".03"/>
  <path fill-rule="evenodd" clip-rule="evenodd" d="M310 4916V0h-1v4916h1z" fill="#161569" fill-opacity=".08"/>
  <path fill-rule="evenodd" clip-rule="evenodd" d="M309 4916V0h-1v4916h1z" fill="#161569" fill-opacity=".03"/>
  <path fill-rule="evenodd" clip-rule="evenodd" d="M155 4916V0h-1v4916h1z" fill="#161569" fill-opacity=".08"/>
  <path fill-rule="evenodd" clip-rule="evenodd" d="M154 4916V0h-1v4916h1z" fill="#161569" fill-opacity=".03"/>
  <path fill-rule="evenodd" clip-rule="evenodd" d="M78 4916V0h1v4916h-1z" fill="#161569" fill-opacity=".08"/>
  <path fill-rule="evenodd" clip-rule="evenodd" d="M78 4916V0h-1v4916h1z" fill="#161569" fill-opacity=".03"/>
</svg>
