<svg width="330" height="565" viewBox="0 0 330 565" fill="none" xmlns="http://www.w3.org/2000/svg">
<path d="M193.531 254.918C192.511 253.656 192.252 251.23 191.734 246.372C191.185 241.062 190.88 238.404 191.612 236.568C193.732 231.263 204.728 231.107 223.905 230.767C255.644 230.221 259.645 230.037 267.382 232.54C273.872 234.642 283.462 237.914 289.501 246.841C294.523 254.31 295.88 263.955 293.785 265.045C292.351 265.792 290.191 262.067 283.505 257.818C279.059 255.03 274.187 252.954 269.07 251.667C264.588 250.471 259.906 249.923 248.325 250.518C238.683 251.037 229.069 252.038 219.522 253.518C204.012 256.081 196.592 258.686 193.531 254.918Z" fill="#1A1B6D"/>
<path d="M147.624 254.22C148.67 252.961 148.979 250.536 149.596 245.68C150.255 240.366 150.615 237.715 149.921 235.877C147.915 230.565 136.923 230.37 117.747 229.978C86.0269 229.336 82.0298 229.14 74.2358 231.619C67.6962 233.701 58.0398 236.945 51.8167 245.853C46.6416 253.312 45.0927 262.946 47.1595 264.043C48.5774 264.801 50.8146 261.077 57.5935 256.854C62.0933 254.073 67.0086 252.011 72.1544 250.747C76.9396 249.494 81.6078 249.049 92.9221 249.66C102.575 250.194 112.188 251.22 121.724 252.736C137.15 255.34 144.51 257.972 147.624 254.22Z" fill="#1A1B6D"/>
<path fill-rule="evenodd" clip-rule="evenodd" d="M189.977 359.463C189.01 359.64 188.301 359.818 188.148 360.251C187.604 360.465 187.014 360.685 186.37 360.926L186.366 360.927C183.474 362.007 182.189 361.913 181.384 361.755L181.359 361.75C180.735 361.622 179.231 361.314 178.911 360.28C178.873 360.158 178.855 360.034 178.853 359.909C178.862 359.877 178.871 359.844 178.881 359.812C179.021 359.332 179.196 358.881 179.4 358.458C179.666 358.056 180 357.649 180.333 357.246C181.439 355.951 182.727 354.856 184.149 354.003L184.169 353.99C184.69 353.653 185.164 353.347 185.602 353.068C186.544 352.664 187.362 352.405 187.883 352.24C190.976 351.25 196.246 350.57 197.29 352.776C197.491 353.196 197.513 353.671 197.444 354.13C197.197 354.228 197.002 354.334 196.832 354.427C196.683 354.509 196.554 354.58 196.425 354.625C195.015 355.129 194.519 355.541 193.075 357.17C192.161 358.198 191.191 358.87 189.977 359.463Z" fill="#1A1B6D"/>
<path fill-rule="evenodd" clip-rule="evenodd" d="M159.763 360.382C159.743 360.187 159.706 359.984 159.648 359.772C158.233 354.575 152.636 352.756 150.794 352.164C147.721 351.161 142.464 350.46 141.377 352.661C141.209 352.998 141.156 353.369 141.172 353.74C141.578 353.863 141.861 354.021 142.096 354.152C142.244 354.234 142.372 354.305 142.5 354.351C143.9 354.861 144.388 355.275 145.801 356.911C147.432 358.793 149.272 359.493 152.433 360.696L152.437 360.697C155.308 361.789 156.594 361.701 157.403 361.547C157.411 361.545 157.419 361.544 157.428 361.542C157.989 361.43 159.26 361.176 159.763 360.382Z" fill="#1A1B6D"/>
<path d="M217.548 415.112C209.354 408.583 205.167 405.22 199.851 403.186C197.184 402.08 194.387 401.281 191.518 400.805C186.694 400.053 183.034 400.342 179.537 400.619C179.537 400.619 174.942 400.81 172.748 401.791C172.266 401.957 171.795 402.152 171.338 402.375C170.949 402.619 170.505 402.767 170.046 402.807L170.009 402.807C169.788 402.754 169.573 402.682 169.365 402.592C169.191 402.528 163.357 399.889 158.534 399.02C153.711 398.151 149.681 399.029 145.414 400.029C140.304 401.199 136.855 402.95 129.963 406.412C121.396 411.372 117.764 414.691 116.206 416.44C113.755 419.094 113.921 419.793 114.062 420.078C114.622 421.196 117.679 420.791 120.349 420.386C128.281 419.178 133.574 417.816 136.198 417.26C142.167 415.99 146.847 416.253 156.213 416.786C162.095 417.118 163.822 417.635 170.704 417.774C173.755 417.835 174.221 417.77 180.426 417.828C185.381 417.887 188.064 417.92 191.524 418.103C194.922 418.196 198.309 418.465 201.672 418.908C207.921 419.84 211.914 421.316 218.721 421.117C220.65 421.063 222.211 420.892 222.511 420.106C222.949 418.987 220.425 417.399 217.548 415.112Z" fill="#1A1B6D" fill-opacity="0.05"/>
<path d="M204.524 421.139C175.776 419.343 177.802 419.219 172.026 419.132C172.026 419.132 159.428 418.952 150.204 418.215C150.204 418.215 147.916 418.037 145.699 417.952C142.782 417.844 132.605 420.179 126.103 421.053C118.542 422.069 115.151 421.216 114.754 422.492C114.174 424.322 120.694 427.648 124.933 429.771C144.578 439.657 160.975 440.876 165.604 439.508C166.932 439.095 168.314 438.87 169.704 438.84C171.577 438.821 173.435 439.121 175.192 439.726C188.197 439.713 194.699 439.706 201.029 437.136C201.564 436.92 204.329 435.239 209.866 431.884C218.759 426.479 220.652 425.003 220.351 423.967C220.16 423.297 219.154 423.053 213.725 422.312C205.883 421.225 204.524 421.139 204.524 421.139Z" fill="#1A1B6D" fill-opacity="0.05"/>
<path d="M141.481 418.202C134.639 418.602 119.078 421.628 117.778 421.243C116.219 421.226 112.337 420.071 114.859 421.21C115.433 421.37 117.079 422.235 117.933 422.219C123.067 421.873 127.076 421.418 131.774 420.966C137.582 420.403 143.429 419.823 149.225 419.907C156.303 419.983 163.302 420.411 170.381 420.602C175.723 420.743 183.297 420.587 188.572 421.053C198.149 421.894 207.333 422.814 214.377 422.799C219.302 422.789 221.305 421.097 222.034 420.982C221.553 420.558 216.733 422.222 212.634 421.523C208.534 420.824 210.037 421.014 206.777 420.526C203.518 420.037 200.524 419.498 197.988 419.399C191.578 419.083 187.98 418.984 181.562 418.609C178.743 418.372 175.038 418.884 172.195 418.629C169.641 418.43 169.356 418.435 167.087 418.23C160.254 418.361 154.878 417.472 149.535 418.048C146.321 418.11 144.051 418.052 141.481 418.202Z" fill="#1A1B6D"/>
<g filter="url(#filter0_d)">
<path d="M269.627 272.874C268.017 272.012 266.442 271.239 263.293 269.691C259.489 267.828 257.59 266.896 256.363 266.416C253.235 265.218 249.956 264.416 246.606 264.028C241.734 263.227 236.749 263.187 231.84 263.908C226.195 264.778 222.385 266.485 217.302 268.759C215.445 269.592 201.194 275.977 201.959 278.452C202.359 279.757 206.981 280.172 210.688 278.571C214.729 276.799 214.065 273.624 219.231 270.543C220.634 269.706 222.276 269.091 225.548 267.861C229.227 266.484 229.868 266.547 230.112 266.835C230.707 267.522 228.695 269.138 227.558 272.657C227.096 274.105 226.161 276.995 227.055 280.17C227.777 282.487 229.23 284.514 231.211 285.968C236.424 290.123 242.937 288.976 243.804 288.81C245.357 288.513 249.774 287.622 252.86 283.628C253.433 282.892 255.853 279.787 255.599 275.817C255.364 272.171 252.813 269.817 253.437 269.286C253.78 268.991 254.674 269.584 257.447 271.173C258.894 272 260.371 272.767 261.812 273.6C265.161 275.547 268.829 277.669 273.558 278.678C274.391 278.859 278.384 279.716 278.709 278.928C279.092 277.933 274.167 275.33 269.627 272.874Z" fill="#1A1B6D"/>
<path d="M253.817 290.435C250.125 291.023 246.377 291.177 242.657 290.894C236.965 290.641 234.069 289.833 228.417 288.847C217.045 286.862 206.242 286.201 206.151 286.732C206.118 286.917 207.352 287.269 213.121 288.625C222.823 290.898 227.677 292.035 230.407 292.479C240.37 294.105 250.641 295.784 260.494 291.138C265.488 288.787 268.874 285.517 268.643 285.153C268.411 284.79 262.66 288.886 253.817 290.435Z" fill="#1A1B6D"/>
<path d="M243.817 266.331C245.714 266.553 247.572 267.004 249.349 267.674C250.533 268.05 251.624 268.655 252.56 269.452C253.709 270.558 254.517 271.96 254.895 273.501C255.465 275.577 255.393 277.782 254.689 279.839C254.095 281.624 253.091 283.257 251.753 284.611C250.691 285.728 249.445 286.664 248.069 287.378C246.033 288.412 243.783 288.961 241.505 288.979C238.37 289.239 235.247 288.518 232.589 286.919C230.579 285.703 228.974 283.945 227.961 281.851C227.193 280.244 226.804 278.483 226.82 276.697C226.85 274.811 227.315 272.949 228.18 271.25C228.844 269.867 229.432 268.656 230.691 267.67C231.95 266.684 233.557 266.472 236.507 266.19C238.946 265.961 241.398 266.009 243.817 266.331Z" fill="#1A1B6D"/>
<path d="M239.455 273.91C239.363 273.952 237.619 274.779 237.597 276.299C237.609 276.982 237.877 277.632 238.349 278.127C238.931 278.844 239.75 279.34 240.668 279.533C241.159 279.633 242.783 279.962 243.795 278.887C244.807 277.811 244.391 276.275 244.334 276.072C244.18 275.584 243.92 275.136 243.571 274.759C243.222 274.382 242.792 274.086 242.311 273.89C241.863 273.699 241.377 273.602 240.886 273.605C240.394 273.609 239.907 273.712 239.455 273.91Z" fill="#1A1B6D"/>
<path d="M245.383 273.242C245.198 272.861 244.93 272.525 244.597 272.258C244.264 271.992 243.874 271.801 243.455 271.698C242.242 271.553 241.314 272.687 240.9 273.201C240.764 273.374 239.508 274.933 240.067 275.801C240.489 276.449 241.717 276.393 241.802 276.357C242.66 276.289 242.898 275.817 243.564 275.941C244.231 276.064 244.399 276.612 244.771 276.492C245.144 276.371 245.269 275.662 245.401 274.988C245.473 274.607 245.407 274.535 245.528 274.13C245.57 273.986 245.584 273.837 245.571 273.689C245.541 273.528 245.477 273.376 245.383 273.242Z" fill="white" fill-opacity="0.72"/>
</g>
<g filter="url(#filter1_d)">
<path d="M108.562 285.393C108.011 285.538 106.78 285.878 105.049 286.231C101.496 286.926 97.8856 287.298 94.267 287.341C90.2257 287.423 86.2811 287.504 81.5943 286.541C73.6243 284.909 68.6798 281.319 68.4151 281.729C68.1504 282.139 71.4641 285.244 76.4124 287.535C86.8916 292.382 98.3914 290.337 106.459 288.903C106.792 288.846 108.978 288.378 113.35 287.442C125.049 284.94 130.91 283.686 130.871 283.397C130.796 282.647 117.226 283.117 108.562 285.393Z" fill="#1A1B6D"/>
<path d="M119.752 265.218C115.259 263.25 111.332 261.563 105.67 260.597C102.266 260.015 97.0198 259.166 90.596 260.39C87.6173 260.983 85.0221 261.847 81.0284 263.219C78.6491 264.004 76.3157 264.92 74.0394 265.961C72.584 266.646 71.6026 267.184 67.6141 269.503C59.0764 274.442 58.2142 275.108 58.3542 275.49C58.6339 276.272 62.675 275.412 63.5122 275.24C66.8858 274.528 69.9586 273.251 75.4089 270.212C80.8593 267.172 83.3404 265.362 83.9376 265.937C84.5347 266.513 81.9465 268.629 81.5624 272.377C81.1881 276.295 83.5117 279.361 84.0644 280.084C87.0359 283.996 91.428 284.894 92.9728 285.185C93.8297 285.348 100.312 286.466 105.65 282.362C107.661 280.929 109.169 278.927 109.963 276.636C110.95 273.499 110.106 270.648 109.684 269.225C108.672 265.827 106.729 264.119 107.3 263.482C107.607 263.152 108.361 263.363 110.877 264.258C114.261 265.469 115.953 266.072 116.662 266.424C122.202 269.178 121.793 273.008 126.381 275.029C130.025 276.634 134.672 276.19 135.113 274.901C135.994 272.417 120.936 265.745 119.752 265.218Z" fill="#1A1B6D"/>
<path d="M93.4757 263.078C91.5726 263.302 89.7014 263.757 87.9056 264.433C86.7115 264.816 85.6026 265.426 84.6429 266.228C83.4656 267.321 82.617 268.709 82.1926 270.236C81.5636 272.286 81.5725 274.463 82.2181 276.488C82.7569 278.252 83.7161 279.859 85.0171 281.178C86.0504 282.278 87.2692 283.195 88.6219 283.89C90.6517 284.907 92.9059 285.435 95.2009 285.432C96.943 285.487 100.555 285.597 104.176 283.354C106.213 282.145 107.868 280.4 108.949 278.322C109.758 276.735 110.198 274.996 110.237 273.234C110.252 271.375 109.839 269.544 109.026 267.878C108.402 266.516 107.848 265.327 106.617 264.377C105.386 263.428 103.786 263.194 100.844 262.946C98.3955 262.713 95.9232 262.757 93.4757 263.078Z" fill="#1A1B6D"/>
<path d="M98.21 270.529C98.3005 270.571 100.021 271.383 99.9986 272.908C99.9616 273.578 99.6757 274.215 99.1951 274.698C98.5886 275.41 97.7564 275.902 96.8356 276.093C96.342 276.196 94.7087 276.534 93.727 275.506C92.7453 274.477 93.2051 272.933 93.2687 272.73C93.4349 272.26 93.6978 271.828 94.0411 271.461C94.3843 271.093 94.8003 270.798 95.2629 270.594C95.7255 270.39 96.2245 270.282 96.7286 270.276C97.2326 270.27 97.7307 270.366 98.1913 270.559L98.21 270.529Z" fill="#1A1B6D"/>
<path d="M96.0139 269.537C96.2115 269.158 96.4905 268.825 96.8311 268.561C97.1718 268.296 97.566 268.107 97.9861 268.006C99.2034 267.854 100.105 268.972 100.498 269.471C100.63 269.644 101.841 271.178 101.257 272.031C100.817 272.676 99.5968 272.602 99.5057 272.596C98.65 272.533 98.4319 272.069 97.7619 272.19C97.0918 272.31 96.9017 272.859 96.5388 272.747C96.1759 272.635 96.0646 271.926 95.9526 271.265C95.8912 270.884 95.959 270.818 95.8555 270.413C95.8158 270.274 95.8035 270.129 95.8191 269.984C95.8524 269.824 95.9187 269.672 96.0139 269.537Z" fill="white" fill-opacity="0.72"/>
</g>
<path d="M308.607 298.579C308.255 298.62 309.043 304.241 308.94 313.319C308.726 324.263 307.382 335.167 304.927 345.861C300.111 366.336 291.574 380.599 281.85 396.545C272.484 411.915 258.029 432.344 253.49 430.266C250.271 428.771 254.627 417.99 249.432 404.12C247.853 399.894 245.516 397.471 240.843 392.619C236.008 387.604 231.403 384.819 222.398 379.417C213.79 374.255 209.372 371.614 203.614 370.206C198.847 369.003 194.9 369.286 187.064 369.589C174.027 370.133 171.415 372.569 170.306 374.251C169.657 375.28 169.258 376.443 169.143 377.647C168.749 376.43 168.147 375.29 167.362 374.278C166.28 372.905 163.286 370.157 150.316 369.047C145.117 368.604 140.101 368.042 133.753 369.629C127.965 371.055 123.484 373.656 114.772 378.8C105.628 384.183 100.988 386.988 96.0455 391.998C91.287 396.804 88.8863 399.24 87.2119 403.432C81.8016 417.082 85.7328 428.464 82.5769 429.569C79.0865 430.794 70.4527 416.734 66.2324 409.725C46.9468 377.697 37.2979 361.677 32.944 345.076C26.896 322.025 27.908 306.124 26.9501 306.189C25.7377 306.266 27.4716 332.787 30.1172 406.655C30.6543 421.587 30.8986 429.341 33.8283 440.333C36.2045 449.269 39.5474 457.307 63.2728 494.511C83.1012 525.635 87.4172 530.487 93.2342 535.466C95.7014 537.578 107.68 547.651 126.842 554.885C135.742 558.244 177.392 573.962 213.231 554.761C223.619 549.188 230.934 542.089 240.729 532.531C252.226 521.327 259.125 511.777 267.298 500.378C282.672 478.92 292.444 465.257 297.62 445.238C299.635 437.451 298.571 437.887 301.022 415.954C306.38 368.062 312.018 360.327 311.556 331.542C311.268 314.352 308.892 298.555 308.607 298.579ZM231.57 454.216C225.452 459.901 214.847 460.723 209.194 456.331C204.135 452.395 207.134 447.293 202.519 444.34C197.104 440.853 190.912 446.545 177.784 445.512C174.494 445.258 171.563 444.382 168.426 443.391C168.426 443.391 168.426 443.391 168.083 443.393C167.253 442.807 157.955 444.988 157.955 444.988C145.2 448.132 138.097 439.874 132.157 444.212C127.956 447.287 130.796 451.946 126.315 455.74C120.929 460.3 110.035 459.353 103.984 453.583C99.3601 449.174 97.0078 441.4 99.3943 438.599C99.9648 437.934 100.542 437.815 101.03 436.893C102.192 434.695 99.9345 432.272 99.3834 429.414C98.752 426.141 100.569 423.309 102.615 420.13C106.274 414.43 116.874 402.098 135.585 396.096C144.144 393.355 148.733 391.88 153.306 393.664C156.648 394.968 160.329 395.211 163.79 396.174C164.394 396.336 166.133 396.835 167.427 395.956C167.774 395.745 168.073 395.463 168.302 395.13C168.457 395.691 168.822 396.171 169.324 396.473C170.179 396.966 171.138 396.721 172.153 396.476C175.906 395.582 179.851 395.46 183.499 394.217C193.124 390.962 212.194 402.367 215.956 404.582C219.249 406.55 228.432 412.324 233.654 420.778C235.643 424.004 237.388 426.816 236.687 430.074C236.051 432.926 233.759 435.35 234.88 437.55C235.349 438.467 235.923 438.594 236.48 439.259C238.806 442.054 236.282 449.823 231.57 454.216Z" fill="#1A1B6D"/>
<path fill-rule="evenodd" clip-rule="evenodd" d="M29.4186 288.561C28.7859 291.337 27.0716 298.819 26.1103 298.709C25.3606 298.626 25.4859 293.946 25.6489 287.861C25.7238 285.064 25.8067 281.971 25.8162 278.891C25.8066 267.419 24.7478 260.836 23.2006 251.216C22.3145 245.706 21.2681 239.201 20.1669 230.211C18.9926 220.597 18.7581 216.072 18.5151 211.382C18.2889 207.016 18.0552 202.507 17.049 193.616C14.6938 172.814 11.9849 159.61 9.86209 149.263C6.96804 135.156 5.16314 126.358 6.82839 110.857C8.52922 94.953 10.3182 79.925 21.323 71.8426C23.4525 70.2597 25.7045 69.0707 27.9506 67.8848C32.4962 65.4848 37.0179 63.0974 40.4519 57.4838C42.8508 53.5244 43.3286 50.2808 43.8026 47.0637C43.9705 45.9239 44.1379 44.7874 44.3901 43.6235C47.8562 27.641 65.2923 17.6492 74.5205 12.3609L74.5447 12.3471C83.6448 7.13416 99.7489 -0.0326677 134.894 0.136959C177.175 0.344314 249.136 11.1116 256.587 40.4331C256.983 41.9892 257.317 43.5739 257.655 45.1802C259.116 52.1225 260.662 59.4662 267.718 66.6306C272.084 71.0783 276.202 72.8134 282.253 75.3633C285.661 76.7996 289.683 78.4944 294.709 81.0783L294.71 81.0789C308.656 88.2492 315.635 91.8375 320.596 98.091C333.252 114.059 327.537 141.081 316.107 195.127C312.624 213.491 310.32 232.046 309.208 250.681C308.668 259.642 308.424 268.173 308.222 275.263C307.903 286.426 307.686 294.018 306.575 294.097C305.067 294.214 303.064 280.684 302.832 279.094C300.006 259.995 301.519 247.519 302.734 237.495C303.974 227.274 304.904 219.604 300.61 210.063C300.412 209.624 300.184 209.135 299.935 208.604C297.784 204.015 294.137 196.233 296.134 189.576C297.22 186.299 298.019 182.937 298.522 179.528C298.813 177.553 298.993 175.565 299.059 173.573C299.139 169.704 297.814 166.666 290.997 155.233C284.18 143.799 280.608 139.018 275.055 133.735C260.215 120.864 234.877 118.062 234.877 118.062C232.902 118.058 231.036 118.005 229.05 117.949C225.143 117.839 220.774 117.716 214.215 117.926C201.136 118.348 194.948 119.323 189.922 120.114C185.305 120.841 181.669 121.414 174.574 121.263C168.568 121.136 165.859 120.566 162.789 119.921C159.466 119.222 155.722 118.434 146.916 118.025C133.358 117.387 126.583 117.074 119.67 118.944C103.333 123.375 81.6905 131.797 72.711 137.67C72.7665 137.562 56.3211 143.75 43.378 176.439C41.5405 181.079 39.5468 186.827 40.2934 193.948C40.6677 197.49 41.5417 199.696 42.3889 201.834C42.7443 202.731 43.095 203.616 43.402 204.583C44.5087 208.067 42.3069 214.743 39.6188 222.894C37.4451 229.484 34.9535 237.039 33.6361 244.65C33.2962 246.611 33.2741 247.246 33.1888 249.694C33.0839 252.701 32.8837 258.446 31.8811 272.754C31.4498 278.072 30.6268 283.355 29.4186 288.561Z" fill="#1A1B6D"/>
<defs>
<filter id="filter0_d" x="197.93" y="261.396" width="84.8011" height="38.7665" filterUnits="userSpaceOnUse" color-interpolation-filters="sRGB">
<feFlood flood-opacity="0" result="BackgroundImageFix"/>
<feColorMatrix in="SourceAlpha" type="matrix" values="0 0 0 0 0 0 0 0 0 0 0 0 0 0 0 0 0 0 127 0"/>
<feOffset dy="2"/>
<feGaussianBlur stdDeviation="2"/>
<feColorMatrix type="matrix" values="0 0 0 0 0 0 0 0 0 0 0 0 0 0 0 0 0 0 0.1 0"/>
<feBlend mode="normal" in2="BackgroundImageFix" result="effect1_dropShadow"/>
<feBlend mode="normal" in="SourceGraphic" in2="effect1_dropShadow" result="shape"/>
</filter>
<filter id="filter1_d" x="54.3408" y="257.764" width="84.809" height="38.8171" filterUnits="userSpaceOnUse" color-interpolation-filters="sRGB">
<feFlood flood-opacity="0" result="BackgroundImageFix"/>
<feColorMatrix in="SourceAlpha" type="matrix" values="0 0 0 0 0 0 0 0 0 0 0 0 0 0 0 0 0 0 127 0"/>
<feOffset dy="2"/>
<feGaussianBlur stdDeviation="2"/>
<feColorMatrix type="matrix" values="0 0 0 0 0 0 0 0 0 0 0 0 0 0 0 0 0 0 0.1 0"/>
<feBlend mode="normal" in2="BackgroundImageFix" result="effect1_dropShadow"/>
<feBlend mode="normal" in="SourceGraphic" in2="effect1_dropShadow" result="shape"/>
</filter>
</defs>
</svg>
